<svg width="667" height="667" viewBox="0 0 667 667" fill="none" xmlns="http://www.w3.org/2000/svg">
<mask id="mask0_2984_110" style="mask-type:luminance" maskUnits="userSpaceOnUse" x="0" y="0" width="667" height="667">
<path d="M0 666.667H666.667V0.000121117H0V666.667Z" fill="white"/>
</mask>
<g mask="url(#mask0_2984_110)">
<path d="M0 666.667H1000V0.000121117H0V666.667Z" fill="#93D9B6"/>
<path d="M782.189 405.415V258.896H724.596V405.415H639.283V361.448H611.709V290.821H639.283L608.485 260.024H513.769L480.967 292.827H504.131V343.524H476.811L412.784 313.227H396.315V281.077H358.088V196.396H305.575V363.849H260.649V338.327H235.572V268.697H188.703V348.023H156.24V263.203H139.105V224.692H107.081V271.909H67.3349V198.389H30.2807V337.337H-0.015625V527.841H802.304V405.415H782.189Z" fill="#65C999"/>
<path d="M16.1738 361.573C16.1738 333.737 38.7384 311.172 66.5744 311.172H369.522V361.573H16.1738Z" fill="#E9E8E7"/>
<path d="M28.335 350.875C33.0172 334.163 48.3875 321.871 66.5751 321.871H66.3454H87.9126C87.9126 321.871 70.7688 334.163 66.0864 350.875H28.335Z" fill="#56B6D9"/>
<path d="M95.6655 334.731H121.68V321.871H95.6655V334.731Z" fill="#265773"/>
<path d="M132.073 334.731H158.088V321.871H132.073V334.731Z" fill="#265773"/>
<path d="M168.479 334.731H194.493V321.871H168.479V334.731Z" fill="#265773"/>
<path d="M204.885 334.731H230.9V321.871H204.885V334.731Z" fill="#265773"/>
<path d="M241.292 334.731H267.307V321.871H241.292V334.731Z" fill="#265773"/>
<path d="M277.699 334.731H303.714V321.871H277.699V334.731Z" fill="#265773"/>
<path d="M314.104 334.731H340.12V321.871H314.104V334.731Z" fill="#265773"/>
<path d="M153.398 527.841H177.393V385.46H153.398V527.841Z" fill="#E9E8E7"/>
<path d="M153.398 527.841V385.46H177.393L153.398 527.841Z" fill="#999FAD"/>
<path d="M141.281 385.46H189.512V370.152H141.281V385.46Z" fill="#265773"/>
<path d="M12.1025 527.841H36.0973V385.46H12.1025V527.841Z" fill="#E9E8E7"/>
<path d="M12.1025 527.841V385.46H36.0973L12.1025 527.841Z" fill="#999FAD"/>
<path d="M-0.015625 385.46H48.2156V370.152H-0.015625V385.46Z" fill="#265773"/>
<path d="M273.642 527.841H297.638V385.46H273.642V527.841Z" fill="#E9E8E7"/>
<path d="M273.642 527.841V385.46H297.638L273.642 527.841Z" fill="#999FAD"/>
<path d="M261.522 385.46H309.754V370.152H261.522V385.46Z" fill="#265773"/>
<path d="M278.189 360.177V347.549C285.425 352.927 293.517 357.203 302.211 360.177H278.189ZM51.737 348.053V360.177H28.423C36.836 357.297 44.6792 353.189 51.737 348.053ZM62.8735 338.451C68.4022 332.819 73.1798 326.453 77.0516 319.511V360.177H62.8735V338.451ZM100.949 336.963V360.177H88.188V319.511C91.7235 325.849 96.0188 331.705 100.949 336.963ZM112.085 347.011C119.503 352.636 127.837 357.104 136.816 360.177H112.085V347.011ZM217.84 360.177H193.817C202.511 357.201 210.603 352.927 217.84 347.548V360.177ZM243.153 318.229V360.177H228.976V337.705C234.539 331.909 239.327 325.367 243.153 318.229ZM267.052 360.177H254.291V320.741C257.86 326.907 262.151 332.599 267.052 337.708V360.177ZM253.583 276.661H242.445C242.445 319.191 207.845 353.791 165.316 353.791C122.788 353.791 88.188 319.191 88.188 276.661H77.0516C77.0516 319.191 42.4506 353.791 -0.0786133 353.791V360.177V364.925V370.733H330.711V364.925V360.177V353.791C288.181 353.791 253.583 319.191 253.583 276.661Z" fill="#B1B1B0"/>
<path d="M361.38 320.56H368.238V243.948H361.38V320.56Z" fill="#265773"/>
<path d="M346.595 310.453H381.08V266.831H346.595V310.453Z" fill="#E9E8E7"/>
<path d="M346.595 310.453H356.38V266.831H346.595V310.453Z" fill="#999FAD"/>
<path d="M333.229 374.876H394.445V297.44H333.229V374.876Z" fill="#CCCCC9"/>
<path d="M333.229 374.876H350.6V297.44H333.229V374.876Z" fill="#999FAD"/>
<path d="M317.831 527.841H409.843V351.425H317.831V527.841Z" fill="#E9E8E7"/>
<path d="M317.831 527.841H343.94V351.425H317.831V527.841Z" fill="#999FAD"/>
<path d="M350.6 336.891H379.019V312.112H350.6V336.891Z" fill="#71CEF4"/>
<path d="M350.6 336.891V312.112H379.019L350.6 336.891Z" fill="#56B6D9"/>
<path d="M356.316 286.279H372.99V271.741H356.316V286.279Z" fill="#71CEF4"/>
<path d="M356.316 286.279V271.741H372.991L356.316 286.279Z" fill="#56B6D9"/>
<path d="M350.6 394.404H379.019V369.626H350.6V394.404Z" fill="#71CEF4"/>
<path d="M350.6 394.404V369.627H379.019L350.6 394.404Z" fill="#56B6D9"/>
<path d="M350.6 451.916H379.019V427.138H350.6V451.916Z" fill="#71CEF4"/>
<path d="M350.6 451.916V427.139H379.019L350.6 451.916Z" fill="#56B6D9"/>
<path d="M311.151 351.501H415.236V344.533H311.151V351.501Z" fill="#265773"/>
<path d="M328.314 297.527H398.597V290.56H328.314V297.527Z" fill="#265773"/>
<path d="M342.999 266.831H384.928V259.864H342.999V266.831Z" fill="#265773"/>
<path d="M336.112 527.841H389.657V487.304H336.112V527.841Z" fill="#23506D"/>
<path d="M441.639 527.841H456.54V471.272H441.639V527.841Z" fill="#593117"/>
<path d="M486.607 448.585C486.607 469.307 469.809 486.103 449.091 486.103C428.369 486.103 411.573 469.307 411.573 448.585C411.573 427.865 428.369 411.069 449.091 411.069C469.809 411.069 486.607 427.865 486.607 448.585Z" fill="#3D9D3B"/>
<path d="M449.091 486.103C469.809 486.103 486.607 469.307 486.607 448.585C486.607 427.865 469.809 411.069 449.091 411.069V486.103Z" fill="#4ABC39"/>
<path d="M573.78 527.424H687.752V285.659H573.78V527.424Z" fill="#999FAD"/>
<path d="M594.841 527.424H687.752V285.659H594.841V527.424Z" fill="#E2E1DF"/>
<path d="M573.78 390.619H687.752V385.843H573.78V390.619Z" fill="#E9E8E7"/>
<path d="M687.752 332.916H666.992V284.853H662.216V332.916H597.23V284.853H592.454V332.916H573.78V337.692H592.454V527.424H597.23V337.692H662.216V527.424H666.992V337.692H687.752V332.916Z" fill="#F5F6F5"/>
<path d="M562.867 294.859H698.665V274.849H562.867V294.859Z" fill="#2D688E"/>
<path d="M694.456 447.392H567.077C556.38 447.392 547.708 456.064 547.708 466.76V527.841H713.824V466.76C713.824 456.064 705.153 447.392 694.456 447.392Z" fill="#2D688E"/>
<path d="M630.268 447.392H567.077C556.38 447.392 547.708 456.064 547.708 466.76V527.841H630.268V447.392Z" fill="#23506D"/>
<path d="M586.105 527.841H678.327V487.616H586.105V527.841Z" fill="#B3BBCB"/>
<path d="M586.105 527.841H632.216V487.616H586.105V527.841Z" fill="#999FAD"/>
<path d="M650.972 464.927C650.972 453.493 641.703 444.224 630.268 444.224C618.835 444.224 609.565 453.493 609.565 464.927C609.565 476.361 618.835 485.632 630.268 485.632C641.703 485.632 650.972 476.361 650.972 464.927Z" fill="#999FAD"/>
<path d="M631.167 472.503V466.893L631.172 466.897C632.273 467.661 632.885 468.581 632.885 469.927C632.885 471.329 632.321 472.207 631.167 472.503ZM627.711 457.621C627.711 456.533 628.164 455.928 628.921 455.657V460.043C628.201 459.463 627.711 458.777 627.711 457.621ZM637.293 469.468C637.293 467.477 636.835 466.1 635.365 464.661C634.416 463.739 632.588 462.472 631.167 461.543V455.673C632.485 456.228 632.604 457.877 632.58 459.549H636.712C636.684 457.416 636.84 452.631 631.167 452.075V449.183H628.921V452.072C625.148 452.408 623.304 454.5 623.304 458.079C623.304 459.304 623.701 460.56 624.405 461.6C625.595 463.165 627.268 464.248 628.921 465.331V472.341C627.828 471.788 627.459 470.452 627.529 468.764V467.416H623.243V469.1C623.243 472.833 624.772 475.544 628.921 476.004V478.917H631.167V476.035C634.841 475.713 637.293 473.479 637.293 469.468Z" fill="#FAD008"/>
<path d="M547.708 527.841H562.61V471.272H547.708V527.841Z" fill="#593117"/>
<path d="M580.326 422.441C577.558 419.24 576.128 415.177 576.142 410.944V410.869C576.142 406.744 574.952 402.897 572.894 399.653C570.48 395.845 569.05 391.385 569.765 386.932C570.012 385.396 570.02 383.779 569.748 382.117C568.693 375.7 563.337 370.628 556.874 369.901C547.937 368.896 540.368 375.861 540.368 384.596C540.368 385.333 540.421 386.057 540.526 386.765C541.198 391.283 539.872 395.792 537.425 399.649C535.366 402.893 534.174 406.741 534.174 410.869V410.939C534.19 415.196 532.725 419.265 529.948 422.491C524.129 429.247 520.976 438.356 522.158 448.219C523.972 463.308 536.17 475.428 551.269 477.141C571.37 479.421 588.405 463.757 588.405 444.116C588.405 435.823 585.356 428.257 580.326 422.441Z" fill="#3D9D3B"/>
<path d="M576.143 410.944V410.869C576.143 406.744 574.952 402.897 572.895 399.653C570.479 395.845 569.051 391.385 569.764 386.932C570.012 385.396 570.02 383.779 569.748 382.117C568.693 375.7 563.337 370.628 556.875 369.901C556.296 369.836 555.724 369.808 555.159 369.808V477.359C573.52 477.359 588.405 462.476 588.405 444.116C588.405 435.823 585.356 428.257 580.327 422.441C577.559 419.24 576.128 415.177 576.143 410.944Z" fill="#4ABC39"/>
<path d="M534.128 527.841L465.418 527.671L465.942 315.384L534.65 315.555L534.128 527.841Z" fill="#EBEBEA"/>
<path d="M479.216 527.704L465.418 527.671L465.942 315.384L479.74 315.42L479.216 527.704Z" fill="#999FAD"/>
<path d="M540.535 353.493L460.079 353.295L460.192 306.637L540.649 306.836L540.535 353.493Z" fill="#2D688E"/>
<path d="M540.564 341.881L460.107 341.684L460.135 329.86L540.592 330.059L540.564 341.881Z" fill="#265773"/>
<path d="M540.621 318.66L460.164 318.461L460.192 306.637L540.649 306.836L540.621 318.66Z" fill="#265773"/>
<path d="M456.149 404.679L456.196 386.575L459.116 386.58L459.072 404.685L456.149 404.679ZM441.608 386.537L444.716 386.545L444.671 404.649L441.564 404.643L441.608 386.537ZM451.916 386.564L451.871 404.668L448.951 404.66L448.995 386.556L451.916 386.564ZM465.767 386.597L465.777 382.317L437.34 382.249L437.284 404.632L436.385 404.629L436.372 409.925L465.709 409.997L465.723 404.703L463.351 404.695L463.395 386.591L465.767 386.597Z" fill="#2D688E"/>
<path d="M456.009 461.572L456.055 443.467L458.975 443.475L458.931 461.579L456.009 461.572ZM441.468 443.432L444.576 443.44L444.531 461.544L441.423 461.536L441.468 443.432ZM451.776 443.457L451.731 461.561L448.811 461.555L448.855 443.451L451.776 443.457ZM465.627 443.491L465.637 439.212L437.199 439.143L437.143 461.527L436.245 461.524L436.232 466.819L465.569 466.892L465.583 461.596L463.209 461.589L463.253 443.485L465.627 443.491Z" fill="#2D688E"/>
<path d="M541.083 404.888L541.127 386.784L544.048 386.791L544.004 404.895L541.083 404.888ZM558.59 404.931L555.482 404.923L555.528 386.819L558.636 386.827L558.59 404.931ZM551.248 386.808L551.203 404.913L548.283 404.907L548.327 386.801L551.248 386.808ZM536.848 386.773L536.803 404.877L534.431 404.871L534.419 410.168L563.755 410.24L563.768 404.944L562.87 404.941L562.926 382.559L534.486 382.488L534.476 386.767L536.848 386.773Z" fill="#2D688E"/>
<path d="M540.941 461.783L540.987 443.677L543.908 443.685L543.863 461.789L540.941 461.783ZM558.449 461.825L555.343 461.817L555.387 443.713L558.495 443.721L558.449 461.825ZM551.108 443.703L551.063 461.807L548.143 461.8L548.187 443.695L551.108 443.703ZM536.707 443.667L536.663 461.771L534.291 461.765L534.277 467.061L563.615 467.133L563.628 461.839L562.729 461.836L562.784 439.452L534.345 439.383L534.335 443.661L536.707 443.667Z" fill="#2D688E"/>
<path d="M520.591 388.595L486.892 388.512L486.964 359.131L520.664 359.213L520.591 388.595Z" fill="#71CEF4"/>
<path d="M486.892 388.512L486.964 359.131L520.664 359.214L486.892 388.512Z" fill="#56B6D9"/>
<path d="M520.44 449.511L486.741 449.427L486.813 420.045L520.513 420.129L520.44 449.511Z" fill="#71CEF4"/>
<path d="M486.741 449.427L486.813 420.045L520.513 420.129L486.741 449.427Z" fill="#56B6D9"/>
<path d="M522.734 527.812L479.216 527.704L479.312 488.537L522.83 488.645L522.734 527.812Z" fill="#23506D"/>
<path d="M548.666 527.841H555.884V500.438H548.666V527.841Z" fill="#593117"/>
<path d="M570.449 489.447C570.449 499.484 562.312 507.621 552.275 507.621C542.237 507.621 534.1 499.484 534.1 489.447C534.1 479.411 542.237 471.272 552.275 471.272C562.312 471.272 570.449 479.411 570.449 489.447Z" fill="#3D9D3B"/>
<path d="M552.275 507.621C562.312 507.621 570.45 499.484 570.45 489.447C570.45 479.411 562.312 471.272 552.275 471.272V507.621Z" fill="#4ABC39"/>
<path d="M36.0974 265.448C31.1209 265.448 27.0861 261.413 27.0861 256.437C27.0861 251.46 31.1209 247.425 36.0974 247.425C41.0746 247.425 45.1085 251.46 45.1085 256.437C45.1085 261.413 41.0746 265.448 36.0974 265.448ZM36.0974 237.048C25.3892 237.048 16.7085 245.729 16.7085 256.437C16.7085 267.145 36.0974 293.727 36.0974 293.727C36.0974 293.727 55.4865 267.145 55.4865 256.437C55.4865 245.729 46.8053 237.048 36.0974 237.048Z" fill="#E20E62"/>
<path d="M658.904 240.02C658.083 240.02 657.26 239.707 656.633 239.08C649.592 232.037 640.228 228.159 630.268 228.159C620.308 228.159 610.945 232.037 603.903 239.08C602.648 240.333 600.619 240.333 599.365 239.08C598.111 237.825 598.111 235.795 599.365 234.541C607.619 226.285 618.593 221.74 630.268 221.74C641.943 221.74 652.917 226.285 661.172 234.541C662.425 235.795 662.425 237.825 661.172 239.08C660.545 239.707 659.724 240.02 658.904 240.02Z" fill="white"/>
<path d="M648.527 250.395C647.705 250.395 646.885 250.081 646.257 249.455C637.441 240.64 623.095 240.64 614.279 249.455C613.024 250.709 610.993 250.709 609.741 249.455C608.487 248.201 608.487 246.171 609.741 244.917C621.059 233.597 639.477 233.597 650.797 244.917C652.049 246.171 652.049 248.201 650.797 249.455C650.169 250.081 649.349 250.395 648.527 250.395Z" fill="white"/>
<path d="M638.366 260.557C637.543 260.557 636.723 260.244 636.095 259.617C634.539 258.061 632.471 257.204 630.268 257.204C628.068 257.204 625.998 258.061 624.442 259.617C623.191 260.871 621.156 260.871 619.903 259.617C618.65 258.365 618.65 256.332 619.903 255.08C622.672 252.311 626.354 250.785 630.268 250.785C634.184 250.785 637.867 252.311 640.635 255.08C641.887 256.332 641.887 258.365 640.635 259.617C640.007 260.244 639.187 260.557 638.366 260.557Z" fill="white"/>
<path d="M533.772 268.98C532.952 268.98 532.131 268.667 531.504 268.04C524.461 260.999 515.097 257.12 505.139 257.12C495.177 257.12 485.813 260.999 478.772 268.04C477.519 269.293 475.487 269.293 474.233 268.04C472.98 266.787 472.98 264.755 474.233 263.501C482.487 255.247 493.464 250.701 505.139 250.701C516.811 250.701 527.788 255.247 536.041 263.501C537.296 264.755 537.296 266.787 536.041 268.04C535.413 268.667 534.593 268.98 533.772 268.98Z" fill="white"/>
<path d="M523.397 279.356C522.576 279.356 521.755 279.043 521.128 278.416C512.311 269.6 497.964 269.6 489.147 278.416C487.893 279.671 485.863 279.671 484.609 278.416C483.355 277.163 483.355 275.131 484.609 273.879C495.927 262.558 514.348 262.558 525.665 273.879C526.92 275.131 526.92 277.163 525.665 278.416C525.039 279.043 524.217 279.356 523.397 279.356Z" fill="white"/>
<path d="M513.233 289.519C512.412 289.519 511.591 289.205 510.965 288.579C509.408 287.021 507.339 286.165 505.139 286.165C502.936 286.165 500.867 287.021 499.309 288.579C498.059 289.832 496.027 289.832 494.772 288.579C493.519 287.325 493.519 285.293 494.772 284.04C497.54 281.271 501.221 279.747 505.139 279.747C509.053 279.747 512.735 281.271 515.503 284.04C516.756 285.293 516.756 287.325 515.503 288.579C514.876 289.205 514.055 289.519 513.233 289.519Z" fill="white"/>
<path d="M382.654 224.975C382.143 224.975 381.631 224.779 381.24 224.39C376.851 220 371.016 217.584 364.81 217.584C358.603 217.584 352.768 220 348.379 224.39C347.598 225.17 346.332 225.17 345.551 224.39C344.77 223.608 344.77 222.342 345.551 221.56C350.696 216.418 357.534 213.583 364.81 213.583C372.086 213.583 378.924 216.418 384.068 221.56C384.85 222.342 384.85 223.608 384.068 224.39C383.678 224.779 383.166 224.975 382.654 224.975Z" fill="white"/>
<path d="M376.188 231.44C375.676 231.44 375.164 231.245 374.773 230.853C369.279 225.361 360.34 225.361 354.845 230.853C354.064 231.635 352.797 231.635 352.017 230.853C351.236 230.073 351.236 228.807 352.017 228.027C359.07 220.972 370.548 220.972 377.601 228.027C378.383 228.807 378.383 230.073 377.601 230.853C377.211 231.245 376.7 231.44 376.188 231.44Z" fill="white"/>
<path d="M369.855 237.773C369.343 237.773 368.831 237.577 368.44 237.187C367.471 236.217 366.181 235.683 364.809 235.683C363.437 235.683 362.148 236.217 361.179 237.187C360.399 237.968 359.131 237.968 358.351 237.187C357.569 236.407 357.569 235.14 358.351 234.359C360.076 232.633 362.369 231.683 364.809 231.683C367.248 231.683 369.543 232.633 371.268 234.359C372.049 235.14 372.049 236.407 371.268 237.187C370.877 237.577 370.367 237.773 369.855 237.773Z" fill="white"/>
<path d="M123.825 160.603C122.403 160.603 121.045 160.861 119.778 161.315C119.867 160.443 119.912 159.56 119.912 158.664C119.912 144.293 108.261 132.641 93.889 132.641C82.4822 132.641 72.8145 139.991 69.2994 150.204C68.825 150.165 68.3489 150.132 67.8645 150.132C58.3223 150.132 50.5859 157.867 50.5859 167.411C50.5859 176.953 58.3223 184.689 67.8645 184.689H123.825C130.476 184.689 135.868 179.297 135.868 172.645C135.868 165.995 130.476 160.603 123.825 160.603Z" fill="white"/>
<path d="M86.2827 187.327H100.171V170.42H86.2827V187.327Z" fill="#65C999"/>
<path d="M86.2827 193.047H100.171V189.059H86.2827V193.047Z" fill="#65C999"/>
<path d="M86.2827 198.389H100.171V194.403H86.2827V198.389Z" fill="#65C999"/>
<path d="M106.386 174.271L93.2271 151.483L80.0688 174.271H106.386Z" fill="#65C999"/>
<path d="M631.756 150.42C630.725 150.42 629.741 150.607 628.821 150.936C628.885 150.303 628.919 149.663 628.919 149.014C628.919 138.59 620.469 130.139 610.044 130.139C601.772 130.139 594.76 135.471 592.211 142.878C591.867 142.85 591.521 142.824 591.171 142.824C584.249 142.824 578.639 148.435 578.639 155.356C578.639 162.278 584.249 167.888 591.171 167.888H631.756C636.581 167.888 640.491 163.978 640.491 159.154C640.491 154.331 636.581 150.42 631.756 150.42Z" fill="white"/>
<path d="M602.622 173.112H616.51V156.204H602.622V173.112Z" fill="#65C999"/>
<path d="M602.622 179.719H616.51V175.731H602.622V179.719Z" fill="#65C999"/>
<path d="M602.622 187.191H616.51V183.203H602.622V187.191Z" fill="#65C999"/>
<path d="M622.723 160.055L609.565 137.267L596.407 160.055H622.723Z" fill="#65C999"/>
<path d="M52.9932 527.841H285.638V444.224H52.9932V527.841Z" fill="#265773"/>
<path d="M52.9932 527.841H170.695V444.224H52.9932V527.841Z" fill="#1D3C4C"/>
<path d="M33.9619 446.947H294.726V437.62H33.9619V446.947Z" fill="#999FAD"/>
<path d="M92.1064 437.62H284.212L216.451 401.32H111.051L92.1064 437.62Z" fill="#E9E8E7"/>
<path d="M43.2881 437.62H178.812L111.051 401.32L43.2881 437.62Z" fill="#999FAD"/>
<path d="M188.16 486.032H224.411V454.424H188.16V486.032Z" fill="#71CEF4"/>
<path d="M188.16 486.032V454.424H224.411L188.16 486.032Z" fill="#56B6D9"/>
<path d="M237.389 486.032H273.641V454.424H237.389V486.032Z" fill="#71CEF4"/>
<path d="M237.389 486.032V454.424H273.641L237.389 486.032Z" fill="#56B6D9"/>
<path d="M78.6929 527.693H145.08V476.823H78.6929V527.693Z" fill="#16272E"/>
<path d="M46.4224 527.841H59.5651V477.952H46.4224V527.841Z" fill="#593117"/>
<path d="M75.1902 434.885C72.749 432.063 71.4865 428.479 71.5001 424.747V424.68C71.5001 421.041 70.4495 417.649 68.6355 414.789C66.5063 411.429 65.2454 407.496 65.8755 403.569C66.0933 402.213 66.0995 400.788 65.8594 399.323C64.9303 393.663 60.2069 389.191 54.5069 388.548C46.6246 387.661 39.9485 393.807 39.9485 401.509C39.9485 402.159 39.997 402.799 40.0891 403.421C40.6818 407.407 39.5126 411.383 37.3547 414.784C35.5391 417.645 34.4875 421.04 34.4875 424.68V424.743C34.5001 428.496 33.2094 432.085 30.7599 434.929C25.6271 440.888 22.8459 448.921 23.8907 457.62C25.4891 470.927 36.247 481.617 49.5641 483.128C67.2922 485.139 82.3151 471.324 82.3151 454.001C82.3151 446.687 79.6251 440.015 75.1902 434.885Z" fill="#3D9D3B"/>
<path d="M71.4999 424.747V424.68C71.4999 421.042 70.4488 417.65 68.6354 414.79C66.5062 411.43 65.2453 407.496 65.8754 403.57C66.0931 402.214 66.0994 400.788 65.8593 399.323C64.9302 393.663 60.2067 389.191 54.5067 388.548C53.9969 388.491 53.4921 388.467 52.9937 388.467V483.319C69.1869 483.319 82.315 470.195 82.315 454.002C82.315 446.687 79.625 440.015 75.1901 434.886C72.7489 432.063 71.4863 428.479 71.4999 424.747Z" fill="#4ABC39"/>
<path d="M282.029 527.841H289.248V500.438H282.029V527.841Z" fill="#593117"/>
<path d="M303.813 489.447C303.813 499.484 295.676 507.621 285.639 507.621C275.601 507.621 267.464 499.484 267.464 489.447C267.464 479.411 275.601 471.272 285.639 471.272C295.676 471.272 303.813 479.411 303.813 489.447Z" fill="#3D9D3B"/>
<path d="M285.639 507.621C295.676 507.621 303.813 499.484 303.813 489.447C303.813 479.411 295.676 471.272 285.639 471.272V507.621Z" fill="#4ABC39"/>
<path d="M666.667 578.296H646.849V542.848H631.563H666.667V578.296ZM213.285 578.296H142.347V558.633V547.381L146.88 542.848H406.553H213.285V578.296Z" fill="#BEE8D4"/>
<path d="M666.667 513.364H661.045L666.667 507.744V513.364Z" fill="#D9DDE6"/>
<path d="M547.708 513.364H534.164L534.217 491.521C535.073 499.052 540.529 505.185 547.708 507.043V513.364ZM534.228 487.283L534.249 478.533L539.388 473.395C540.179 473.823 540.988 474.219 541.813 474.583C537.704 477.481 534.849 482.04 534.228 487.283Z" fill="#99DCBF"/>
<path d="M592.453 447.392H588.245C588.351 446.315 588.405 445.221 588.405 444.116C588.405 438.409 586.961 433.047 584.421 428.361L592.453 420.329V447.392Z" fill="#C7CBD3"/>
<path d="M662.216 447.392H641.28C638.091 445.385 634.315 444.224 630.268 444.224C626.223 444.224 622.447 445.385 619.257 447.392H597.229V415.553L622.164 390.619H662.216V447.392ZM662.216 385.843H626.94L662.216 350.567V385.843Z" fill="#F1F1F1"/>
<path d="M662.216 390.619H622.164L626.94 385.843H662.216V390.619Z" fill="#F5F6F5"/>
<path d="M666.666 447.392H662.216V350.567L666.666 346.116V447.392ZM597.229 447.392H592.453V420.329L597.229 415.553V447.392Z" fill="#FAFBFB"/>
<path d="M647.004 487.616H630.268V485.632C641.703 485.632 650.972 476.361 650.972 464.927C650.972 457.54 647.103 451.056 641.28 447.392H662.216H666.667V467.637C660.04 474.368 653.475 481.039 647.004 487.616Z" fill="#4FA6BD"/>
<path d="M586.105 513.364H562.609V504.399C567.347 501.119 570.449 495.645 570.449 489.447C570.449 484.131 568.167 479.348 564.528 476.024C577.32 472.275 586.911 461.045 588.245 447.392H619.257C613.435 451.056 609.565 457.54 609.565 464.927C609.565 476.361 618.835 485.632 630.268 485.632V487.616H586.105V513.364Z" fill="#4393A9"/>
<path d="M586.105 487.616H647.004C642.016 492.684 637.095 497.688 632.216 502.649V487.616H586.105Z" fill="#D9DDE6"/>
<path d="M621.681 513.364H586.105V487.616H632.216V502.649C628.672 506.253 625.161 509.824 621.681 513.364Z" fill="#C7CBD3"/>
<path d="M630.268 485.632C618.835 485.632 609.565 476.361 609.565 464.927C609.565 457.54 613.435 451.056 619.257 447.392C622.447 445.385 626.223 444.224 630.268 444.224C634.315 444.224 638.091 445.385 641.28 447.392C647.103 451.056 650.972 457.54 650.972 464.927C650.972 476.361 641.703 485.632 630.268 485.632ZM623.243 467.416V469.1C623.243 472.833 624.772 475.544 628.921 476.004V478.917H631.167V476.035C634.841 475.713 637.293 473.479 637.293 469.468C637.293 467.477 636.835 466.1 635.365 464.661C634.416 463.739 632.588 462.472 631.167 461.543V455.673C632.485 456.228 632.604 457.877 632.58 459.549H636.712C636.684 457.416 636.84 452.631 631.167 452.075V449.183H628.921V452.072C625.148 452.408 623.304 454.5 623.304 458.079C623.304 459.304 623.701 460.56 624.405 461.6C625.595 463.165 627.268 464.248 628.921 465.331V472.341C627.828 471.788 627.459 470.452 627.529 468.764V467.416H623.243ZM631.167 472.503V466.893L631.172 466.897C632.273 467.661 632.885 468.581 632.885 469.927C632.885 471.329 632.321 472.207 631.167 472.503ZM628.921 460.043C628.201 459.463 627.711 458.777 627.711 457.621C627.711 456.533 628.164 455.928 628.921 455.657V460.043Z" fill="#C7CBD3"/>
<path d="M631.167 478.917H628.921V476.004C624.772 475.544 623.243 472.833 623.243 469.1V467.416H627.529V468.764C627.459 470.452 627.828 471.788 628.921 472.341V465.331C627.268 464.248 625.595 463.165 624.405 461.6C623.701 460.56 623.304 459.304 623.304 458.079C623.304 454.5 625.148 452.408 628.921 452.072V449.183H631.167V452.075C636.84 452.631 636.684 457.416 636.712 459.549H632.58C632.604 457.877 632.485 456.228 631.167 455.673V461.543C632.588 462.472 634.416 463.739 635.365 464.661C636.835 466.1 637.293 467.477 637.293 469.468C637.293 473.479 634.841 475.713 631.167 476.035V478.917ZM631.167 466.893V472.503C632.321 472.207 632.885 471.329 632.885 469.927C632.885 468.581 632.273 467.661 631.172 466.897L631.167 466.893ZM628.921 455.657C628.164 455.928 627.711 456.533 627.711 457.621C627.711 458.777 628.201 459.463 628.921 460.043V455.657Z" fill="#F8E906"/>
<path d="M562.609 513.364H555.884V507.263C558.341 506.768 560.62 505.777 562.609 504.399V513.364ZM548.665 513.364H547.708V507.043C548.024 507.124 548.343 507.197 548.665 507.263V513.364Z" fill="#967131"/>
<path d="M564.528 476.024C564.527 476.023 564.526 476.022 564.524 476.022C578.326 471.978 588.406 459.224 588.406 444.116C588.406 445.221 588.351 446.315 588.246 447.392C586.911 461.045 577.32 472.275 564.528 476.024ZM541.814 474.583C540.988 474.219 540.179 473.823 539.388 473.395L545.694 467.09L555.159 467.113V471.5C554.22 471.349 553.256 471.272 552.275 471.272C548.38 471.272 544.772 472.497 541.814 474.583ZM551.063 461.807H550.976L551.063 461.72V461.807Z" fill="#78CD6B"/>
<path d="M564.524 476.021C561.965 473.684 558.737 472.071 555.159 471.5V467.113L563.615 467.133L563.628 461.839L562.729 461.836L562.757 450.025L584.421 428.361C586.961 433.047 588.405 438.409 588.405 444.116C588.405 459.224 578.325 471.977 564.524 476.021ZM558.449 461.825L555.343 461.817L555.353 457.429L558.468 454.315L558.449 461.825Z" fill="#82CE49"/>
<path d="M534.164 513.364H522.77L522.827 489.955L534.25 478.533L534.228 487.283C534.144 487.992 534.1 488.715 534.1 489.447C534.1 490.148 534.14 490.84 534.218 491.521L534.164 513.364Z" fill="#F6F6F7"/>
<path d="M563.615 467.133L555.159 467.113L545.693 467.089L550.976 461.807H551.063V461.72L555.353 457.429L555.343 461.817L558.449 461.825L558.468 454.315L562.757 450.025L562.729 461.836L563.628 461.839L563.615 467.133Z" fill="#4FA6BD"/>
<path d="M522.769 513.364H499.417L522.827 489.955L522.769 513.364Z" fill="#4393A9"/>
<path d="M555.884 513.364H548.666V507.263C549.832 507.497 551.039 507.621 552.275 507.621C553.511 507.621 554.717 507.497 555.884 507.263V513.364Z" fill="#967131"/>
<path d="M552.275 507.621C551.039 507.621 549.832 507.497 548.665 507.263C548.343 507.197 548.024 507.124 547.708 507.043C540.529 505.185 535.073 499.052 534.217 491.521C534.14 490.84 534.1 490.148 534.1 489.447C534.1 488.715 534.144 487.992 534.228 487.283C534.849 482.04 537.704 477.481 541.813 474.583C544.772 472.497 548.38 471.272 552.275 471.272C553.256 471.272 554.22 471.349 555.159 471.5C558.737 472.071 561.965 473.684 564.524 476.021C564.525 476.021 564.527 476.023 564.528 476.024C568.167 479.348 570.449 484.131 570.449 489.447C570.449 479.411 562.312 471.272 552.275 471.272V507.621Z" fill="#78CD6B"/>
<path d="M552.275 507.621V471.272C562.312 471.272 570.45 479.411 570.45 489.447C570.45 495.645 567.347 501.119 562.61 504.399C560.62 505.777 558.342 506.768 555.884 507.263C554.718 507.497 553.511 507.621 552.275 507.621Z" fill="#82CE49"/>
<path d="M460.122 335.627L412.784 313.227H396.315V297.527H398.598V291.131L666.667 23.0614V274.849H623.311L608.486 260.024H532.13C524.463 253.98 515.051 250.701 505.139 250.701C493.464 250.701 482.487 255.247 474.234 263.501C472.98 264.755 472.98 266.787 474.234 268.04C474.86 268.667 475.682 268.98 476.503 268.98C477.324 268.98 478.146 268.667 478.772 268.04C485.814 260.999 495.178 257.12 505.139 257.12C510.194 257.12 515.095 258.119 519.619 260.024H513.77L508.242 265.552C507.21 265.443 506.174 265.388 505.138 265.388C497.703 265.388 490.268 268.217 484.61 273.879C483.355 275.131 483.355 277.163 484.61 278.416C485.236 279.043 486.058 279.357 486.879 279.357C487.699 279.357 488.52 279.043 489.147 278.416C492.69 274.875 497.126 272.755 501.735 272.059L480.967 292.827H504.131V306.747L460.192 306.637L460.136 329.86H460.135L460.122 335.627ZM630.268 250.785C626.354 250.785 622.672 252.311 619.903 255.08C618.65 256.332 618.65 258.365 619.903 259.617C620.53 260.244 621.351 260.557 622.174 260.557C622.995 260.557 623.816 260.244 624.442 259.617C625.998 258.061 628.068 257.204 630.268 257.204C632.471 257.204 634.539 258.061 636.095 259.617C636.723 260.244 637.543 260.557 638.366 260.557C639.187 260.557 640.007 260.244 640.635 259.617C641.887 258.365 641.887 256.332 640.635 255.08C637.867 252.311 634.184 250.785 630.268 250.785ZM630.268 236.427C622.834 236.427 615.4 239.257 609.742 244.917C608.487 246.171 608.487 248.201 609.742 249.455C610.367 250.083 611.188 250.396 612.01 250.396C612.831 250.396 613.652 250.083 614.279 249.455C618.687 245.047 624.478 242.844 630.268 242.844C636.059 242.844 641.85 245.047 646.258 249.455C646.886 250.081 647.706 250.395 648.527 250.395C649.35 250.395 650.17 250.081 650.798 249.455C652.05 248.201 652.05 246.171 650.798 244.917C645.138 239.257 637.703 236.427 630.268 236.427ZM630.268 228.159C640.228 228.159 649.592 232.037 656.634 239.08C657.26 239.707 658.083 240.02 658.904 240.02C659.724 240.02 660.546 239.707 661.172 239.08C662.426 237.825 662.426 235.795 661.172 234.541C652.918 226.285 641.943 221.74 630.268 221.74C618.594 221.74 607.619 226.285 599.366 234.541C598.111 235.795 598.111 237.825 599.366 239.08C599.992 239.707 600.812 240.02 601.634 240.02C602.455 240.02 603.275 239.707 603.903 239.08C610.946 232.037 620.308 228.159 630.268 228.159ZM602.622 183.203V187.191H616.51V183.203H602.622ZM602.622 175.731V179.719H616.51V175.731H602.622ZM602.622 167.888V173.112H616.51V167.888H631.756C636.582 167.888 640.491 163.977 640.491 159.153C640.491 154.331 636.582 150.42 631.756 150.42C630.726 150.42 629.742 150.607 628.822 150.936C628.886 150.303 628.919 149.663 628.919 149.013C628.919 138.589 620.47 130.139 610.044 130.139C601.772 130.139 594.76 135.471 592.211 142.877C591.867 142.849 591.522 142.824 591.171 142.824C584.25 142.824 578.639 148.435 578.639 155.356C578.639 162.277 584.25 167.888 591.171 167.888H602.622Z" fill="#BEE8D4"/>
<path d="M436.036 513.364H409.843V351.501H415.236V344.533H394.444V297.527H396.315V313.227H412.784L460.121 335.627L460.116 337.704L460.079 353.295L465.849 353.308L465.723 404.703L463.351 404.695L463.395 386.591L465.767 386.597L465.777 382.317L437.34 382.249L437.284 404.632L436.385 404.629L436.372 409.925L465.709 409.997L465.697 414.936C460.691 412.46 455.053 411.069 449.091 411.069C428.369 411.069 411.573 427.865 411.573 448.585C411.573 466.755 424.488 481.908 441.639 485.363V507.763L436.036 513.364ZM317.831 513.364H297.637V503.099C301.424 499.768 303.813 494.887 303.813 489.447C303.813 484.008 301.424 479.127 297.637 475.796V392.091L304.268 385.46H309.755V379.973L317.831 371.897V513.364ZM456.54 492.861V485.363C459.699 484.727 462.713 483.693 465.531 482.317L465.527 483.873L456.54 492.861ZM273.641 431.957L263.307 426.421L273.641 416.087V431.957ZM534.424 407.625L534.481 384.585L534.476 386.767L536.848 386.773L536.813 400.677C536.08 401.995 535.483 403.4 535.044 404.873L534.431 404.871L534.424 407.623C534.424 407.624 534.424 407.625 534.424 407.625ZM459.072 404.685L456.149 404.679L456.196 386.575L459.116 386.58L459.072 404.685ZM451.871 404.668L448.951 404.66L448.995 386.556L451.916 386.564L451.871 404.668ZM444.671 404.649L441.564 404.643L441.608 386.537L444.716 386.545L444.671 404.649ZM540.515 382.503L534.485 382.488L534.557 353.479L540.535 353.493L540.564 341.881L540.573 337.992L540.62 318.66H540.621L540.649 306.836L504.131 306.747V292.827H480.967L501.735 272.059C502.863 271.888 503.999 271.804 505.137 271.804C510.928 271.804 516.719 274.008 521.128 278.416C521.755 279.043 522.576 279.356 523.397 279.356C524.217 279.356 525.039 279.043 525.665 278.416C526.92 277.163 526.92 275.131 525.665 273.879C520.795 269.007 514.609 266.232 508.241 265.552L513.769 260.024H519.619C524.005 261.872 528.036 264.573 531.504 268.04C532.131 268.667 532.952 268.98 533.772 268.98C534.593 268.98 535.413 268.667 536.041 268.04C537.296 266.787 537.296 264.755 536.041 263.501C534.797 262.257 533.491 261.097 532.129 260.024H608.485L623.311 274.849H562.867V294.859H573.78V375.621L569.272 380.129C567.548 374.675 562.653 370.551 556.875 369.901C556.297 369.836 555.724 369.804 555.16 369.804C547.7 369.804 541.531 375.324 540.515 382.503ZM505.139 279.747C501.221 279.747 497.54 281.271 494.772 284.04C493.519 285.293 493.519 287.325 494.772 288.579C495.399 289.205 496.221 289.519 497.043 289.519C497.864 289.519 498.684 289.205 499.309 288.579C500.867 287.021 502.936 286.165 505.139 286.165C507.339 286.165 509.408 287.021 510.965 288.579C511.591 289.205 512.412 289.519 513.233 289.519C514.055 289.519 514.876 289.205 515.503 288.579C516.756 287.325 516.756 285.293 515.503 284.04C512.735 281.271 509.053 279.747 505.139 279.747Z" fill="#99DCBF"/>
<path d="M297.637 513.364H289.248V507.263C292.423 506.623 295.296 505.157 297.637 503.099V513.364ZM297.637 475.796C294.436 472.98 290.237 471.272 285.639 471.272V456.651L287.275 446.947H294.727V437.62H288.847L296.293 393.435L297.637 392.091V475.796Z" fill="#F5F6F5"/>
<path d="M285.639 456.651V446.947H287.275L285.639 456.651ZM288.847 437.62H284.212L273.642 431.957V416.087L296.294 393.435L288.847 437.62Z" fill="#C7CBD3"/>
<path d="M309.755 385.46H304.268L309.755 379.973V385.46Z" fill="#479AAC"/>
<path d="M394.444 344.533H350.6V339.128L352.837 336.891H379.019V312.112H377.616L392.201 297.527H394.444V344.533Z" fill="#E7E6E5"/>
<path d="M350.6 344.533H345.193L350.6 339.128V344.533Z" fill="#C7CBD3"/>
<path d="M409.843 513.364H389.657V487.304H343.94V351.501H409.843V513.364ZM350.6 451.916H379.019V427.139H350.6V451.916ZM350.6 394.404H379.019V369.627H350.6V394.404Z" fill="#F5F6F5"/>
<path d="M336.112 513.364H317.831V371.897L338.227 351.501H343.94V487.304H336.112V513.364Z" fill="#C7CBD3"/>
<path d="M379.019 336.891H352.837L368.067 321.661L379.019 312.112V336.891Z" fill="#A2E1F5"/>
<path d="M368.067 321.661L377.616 312.112H379.019L368.067 321.661Z" fill="#8AD9E8"/>
<path d="M379.019 394.404H350.6L379.019 369.627V394.404Z" fill="#A2E1F5"/>
<path d="M350.6 394.404V369.627H379.019L350.6 394.404Z" fill="#8AD9E8"/>
<path d="M379.019 451.916H350.6L379.019 427.139V451.916Z" fill="#A2E1F5"/>
<path d="M350.6 451.916V427.139H379.019L350.6 451.916Z" fill="#8AD9E8"/>
<path d="M415.236 351.501H338.227L345.193 344.533H415.236V351.501Z" fill="#479AAC"/>
<path d="M398.597 297.527H392.201L398.597 291.131V297.527Z" fill="#479AAC"/>
<path d="M389.657 513.364H336.112V487.304H389.657V513.364Z" fill="#4393A9"/>
<path d="M441.639 507.763V485.363C444.047 485.848 446.539 486.103 449.091 486.103C451.641 486.103 454.132 485.848 456.54 485.363V492.861L441.639 507.763Z" fill="#967131"/>
<path d="M449.091 486.103C446.539 486.103 444.047 485.848 441.639 485.363C424.488 481.908 411.573 466.755 411.573 448.585C411.573 427.865 428.369 411.069 449.091 411.069V439.172L437.199 439.143L437.143 461.527L436.245 461.524L436.232 466.819L449.091 466.851V486.103ZM449.091 461.556L448.811 461.555L448.855 443.451H449.091V461.556ZM444.531 461.544L441.423 461.536L441.468 443.432L444.576 443.44L444.531 461.544Z" fill="#78CD6B"/>
<path d="M449.091 486.103V466.851L465.569 466.892L465.583 461.596L463.21 461.589L463.253 443.485L465.627 443.491L465.632 441.212L465.531 482.317C462.713 483.693 459.699 484.727 456.54 485.363C454.132 485.848 451.641 486.103 449.091 486.103ZM458.931 461.579L456.01 461.572L456.055 443.467L458.975 443.475L458.931 461.579ZM451.731 461.561L449.091 461.556V443.451L451.776 443.457L451.731 461.561ZM465.637 439.212L449.091 439.172V411.069C455.053 411.069 460.691 412.46 465.697 414.936L465.637 439.212Z" fill="#82CE49"/>
<path d="M573.78 375.621V294.859H592.454V332.916H573.78V337.692H592.454V356.948L573.78 375.621Z" fill="#C7CBD3"/>
<path d="M597.229 352.172V337.692H611.709L597.229 352.172ZM616.485 332.916H597.229V294.859H654.543L616.485 332.916Z" fill="#F1F1F1"/>
<path d="M592.454 356.948V337.692H573.78V332.916H592.454V294.859H597.23V332.916H616.486L611.71 337.692H597.23V352.172L592.454 356.948Z" fill="#FAFBFB"/>
<path d="M654.543 294.859H562.867V274.849H666.667V282.735L654.543 294.859Z" fill="#4FA6BD"/>
<path d="M534.405 414.996L534.424 407.625C534.424 407.625 534.424 407.624 534.424 407.623L534.419 410.168L539.221 410.18L534.405 414.996ZM544.004 404.895L541.083 404.888L541.127 386.784L544.048 386.791L544.004 404.895ZM536.803 404.877L535.044 404.873C535.483 403.4 536.08 401.995 536.813 400.677L536.803 404.877ZM548.292 401.109L548.327 386.801L551.248 386.808L551.22 398.181L548.292 401.109ZM555.159 382.539L540.515 382.503C541.531 375.324 547.7 369.804 555.16 369.804C555.724 369.804 556.297 369.836 556.875 369.901C556.296 369.836 555.724 369.808 555.159 369.808V382.539Z" fill="#78CD6B"/>
<path d="M555.509 393.892L555.528 386.819L558.636 386.827L558.625 390.776L555.509 393.892ZM562.915 386.487L562.925 382.559L555.159 382.539V369.808C555.724 369.808 556.296 369.836 556.875 369.901C562.653 370.551 567.548 374.675 569.272 380.129L562.915 386.487Z" fill="#82CE49"/>
<path d="M479.359 470.043L479.647 353.343L534.558 353.479L534.486 382.488L534.482 384.585L534.424 407.625L534.406 414.996L520.491 428.909L520.514 420.129L486.814 420.045L486.742 449.427L499.942 449.46L479.359 470.043ZM486.892 388.512L520.591 388.595L520.664 359.213L486.964 359.131L486.892 388.512Z" fill="#F6F6F7"/>
<path d="M465.527 483.873L465.632 441.212L465.638 439.212L465.71 409.997L465.723 404.703L465.85 353.308L479.647 353.343L479.359 470.043L465.527 483.873Z" fill="#C7CBD3"/>
<path d="M540.535 353.493L534.557 353.479L479.647 353.343L465.849 353.308L460.079 353.295L460.116 337.704L460.107 341.684L540.564 341.881L540.535 353.493ZM540.573 337.992L540.592 330.059L460.135 329.86L460.192 306.637L504.131 306.747L540.649 306.836L460.192 306.637L460.164 318.461L540.621 318.66L540.573 337.992Z" fill="#4FA6BD"/>
<path d="M540.564 341.881L460.107 341.684L460.116 337.704L460.122 335.627L460.135 329.86L540.592 330.059L540.574 337.992L540.564 341.881Z" fill="#479AAC"/>
<path d="M540.621 318.66L460.164 318.461L460.192 306.637L540.649 306.836L540.621 318.66Z" fill="#479AAC"/>
<path d="M465.709 409.997L436.372 409.925L436.385 404.629L437.284 404.632L437.34 382.249L465.777 382.317L465.767 386.597L463.395 386.591L463.351 404.695L465.723 404.703L465.709 409.997ZM456.196 386.575L456.149 404.679L459.072 404.685L459.116 386.58L456.196 386.575ZM448.995 386.556L448.951 404.66L451.871 404.668L451.916 386.564L448.995 386.556ZM441.608 386.537L441.564 404.643L444.671 404.649L444.716 386.545L441.608 386.537Z" fill="#4FA6BD"/>
<path d="M465.569 466.892L449.091 466.851L436.232 466.819L436.245 461.524L437.143 461.527L437.199 439.143L449.091 439.172L465.637 439.212L465.632 441.212L465.627 443.491L463.253 443.485L463.209 461.589L465.583 461.596L465.569 466.892ZM456.055 443.467L456.009 461.572L458.931 461.579L458.975 443.475L456.055 443.467ZM449.091 461.556L451.731 461.561L451.776 443.457L449.091 443.451H448.855L448.811 461.555L449.091 461.556ZM441.468 443.432L441.423 461.536L444.531 461.544L444.576 443.44L441.468 443.432Z" fill="#4FA6BD"/>
<path d="M539.222 410.18L534.419 410.168L534.424 407.623L534.431 404.871L535.044 404.874L536.803 404.878L536.814 400.678L536.848 386.774L534.476 386.767L534.482 384.585L534.486 382.488L540.515 382.503L555.159 382.539L562.926 382.559L562.915 386.487L558.626 390.776L558.636 386.827L555.528 386.819L555.51 393.892L551.22 398.182L551.248 386.808L548.327 386.802L548.292 401.11L539.222 410.18ZM541.127 386.784L541.083 404.888L544.004 404.895L544.048 386.791L541.127 386.784Z" fill="#4FA6BD"/>
<path d="M520.591 388.595L486.892 388.512L520.664 359.213L520.591 388.595Z" fill="#A2E1F5"/>
<path d="M486.892 388.512L486.964 359.131L520.664 359.214L486.892 388.512Z" fill="#8AD9E8"/>
<path d="M499.941 449.46L486.741 449.427L520.513 420.129L520.491 428.909L499.941 449.46Z" fill="#A2E1F5"/>
<path d="M486.741 449.427L486.813 420.045L520.513 420.129L486.741 449.427Z" fill="#8AD9E8"/>
<path d="M658.904 240.02C658.083 240.02 657.26 239.707 656.633 239.08C649.592 232.037 640.228 228.159 630.268 228.159C620.308 228.159 610.945 232.037 603.903 239.08C603.275 239.707 602.455 240.02 601.633 240.02C600.812 240.02 599.992 239.707 599.365 239.08C598.111 237.825 598.111 235.795 599.365 234.541C607.619 226.285 618.593 221.74 630.268 221.74C641.943 221.74 652.917 226.285 661.172 234.541C662.425 235.795 662.425 237.825 661.172 239.08C660.545 239.707 659.724 240.02 658.904 240.02Z" fill="white"/>
<path d="M612.009 250.396C611.188 250.396 610.367 250.083 609.741 249.455C608.487 248.201 608.487 246.171 609.741 244.917C615.4 239.257 622.833 236.427 630.268 236.427C637.703 236.427 645.137 239.257 650.797 244.917C652.049 246.171 652.049 248.201 650.797 249.455C650.169 250.081 649.349 250.395 648.527 250.395C647.705 250.395 646.885 250.081 646.257 249.455C641.849 245.047 636.059 242.844 630.268 242.844C624.477 242.844 618.687 245.047 614.279 249.455C613.652 250.083 612.831 250.396 612.009 250.396Z" fill="white"/>
<path d="M622.174 260.557C621.351 260.557 620.53 260.244 619.903 259.617C618.65 258.365 618.65 256.332 619.903 255.08C622.672 252.311 626.354 250.785 630.268 250.785C634.184 250.785 637.867 252.311 640.635 255.08C641.887 256.332 641.887 258.365 640.635 259.617C640.007 260.244 639.187 260.557 638.366 260.557C637.543 260.557 636.723 260.244 636.095 259.617C634.539 258.061 632.471 257.204 630.268 257.204C628.068 257.204 625.998 258.061 624.442 259.617C623.816 260.244 622.995 260.557 622.174 260.557Z" fill="white"/>
<path d="M533.772 268.98C532.952 268.98 532.131 268.667 531.504 268.04C528.036 264.573 524.005 261.872 519.619 260.024C515.095 258.119 510.193 257.12 505.139 257.12C495.177 257.12 485.813 260.999 478.772 268.04C478.145 268.667 477.324 268.98 476.503 268.98C475.681 268.98 474.86 268.667 474.233 268.04C472.98 266.787 472.98 264.755 474.233 263.501C482.487 255.247 493.464 250.701 505.139 250.701C515.051 250.701 524.463 253.98 532.129 260.024C533.491 261.097 534.797 262.257 536.041 263.501C537.296 264.755 537.296 266.787 536.041 268.04C535.413 268.667 534.593 268.98 533.772 268.98Z" fill="white"/>
<path d="M486.879 279.357C486.057 279.357 485.236 279.043 484.609 278.416C483.355 277.163 483.355 275.131 484.609 273.879C490.268 268.217 497.703 265.388 505.137 265.388C506.173 265.388 507.209 265.443 508.241 265.552C514.609 266.232 520.795 269.007 525.665 273.879C526.92 275.131 526.92 277.163 525.665 278.416C525.039 279.043 524.217 279.356 523.397 279.356C522.576 279.356 521.755 279.043 521.128 278.416C516.719 274.008 510.928 271.804 505.137 271.804C503.999 271.804 502.863 271.888 501.735 272.059C497.125 272.755 492.689 274.875 489.147 278.416C488.52 279.043 487.699 279.357 486.879 279.357Z" fill="white"/>
<path d="M497.043 289.519C496.221 289.519 495.399 289.205 494.772 288.579C493.519 287.325 493.519 285.293 494.772 284.04C497.54 281.271 501.221 279.747 505.139 279.747C509.053 279.747 512.735 281.271 515.503 284.04C516.756 285.293 516.756 287.325 515.503 288.579C514.876 289.205 514.055 289.519 513.233 289.519C512.412 289.519 511.591 289.205 510.965 288.579C509.408 287.021 507.339 286.165 505.139 286.165C502.936 286.165 500.867 287.021 499.309 288.579C498.684 289.205 497.864 289.519 497.043 289.519Z" fill="white"/>
<path d="M631.756 167.888H616.509V160.055H622.723L609.565 137.267L596.407 160.055H602.621V167.888H591.171C584.249 167.888 578.639 162.278 578.639 155.356C578.639 148.435 584.249 142.824 591.171 142.824C591.521 142.824 591.867 142.85 592.211 142.878C594.76 135.471 601.772 130.139 610.044 130.139C620.469 130.139 628.919 138.59 628.919 149.014C628.919 149.663 628.885 150.303 628.821 150.936C629.741 150.607 630.725 150.42 631.756 150.42C636.581 150.42 640.491 154.331 640.491 159.154C640.491 163.978 636.581 167.888 631.756 167.888Z" fill="white"/>
<path d="M616.51 173.112H602.622V160.055H616.51V167.888V173.112Z" fill="#99DCBF"/>
<path d="M602.622 179.719H616.51V175.731H602.622V179.719Z" fill="#99DCBF"/>
<path d="M602.622 187.191H616.51V183.203H602.622V187.191Z" fill="#99DCBF"/>
<path d="M622.723 160.055H596.407L609.565 137.267L622.723 160.055Z" fill="#99DCBF"/>
<path d="M282.029 513.364H176.363L203.696 486.032H224.411V465.317L242.781 446.947H285.639V456.651V471.272C281.041 471.272 276.843 472.98 273.641 475.795V454.424H237.389V486.032H267.785C267.575 487.139 267.464 488.28 267.464 489.447C267.464 498.249 273.721 505.589 282.029 507.263V513.364Z" fill="#479AAC"/>
<path d="M294.727 446.947H242.781L252.108 437.62H294.727V446.947Z" fill="#C7CBD3"/>
<path d="M284.212 437.62H252.108L263.307 426.421L273.641 431.957L284.212 437.62Z" fill="#F5F6F5"/>
<path d="M224.41 486.032H203.696L224.41 465.317V486.032Z" fill="#A2E1F5"/>
<path d="M267.785 486.032H237.389L273.641 454.424V475.795C270.666 478.412 268.554 481.984 267.785 486.032Z" fill="#A2E1F5"/>
<path d="M237.389 486.032V454.424H273.641L237.389 486.032Z" fill="#8AD9E8"/>
<path d="M289.248 513.364H282.029V507.263C283.196 507.497 284.404 507.621 285.639 507.621C286.875 507.621 288.083 507.497 289.248 507.263V513.364Z" fill="#967131"/>
<path d="M285.639 507.621C284.404 507.621 283.196 507.497 282.029 507.263C273.721 505.589 267.464 498.249 267.464 489.447C267.464 488.28 267.575 487.139 267.785 486.032C268.555 481.984 270.667 478.412 273.641 475.795C276.843 472.98 281.041 471.272 285.639 471.272C290.237 471.272 294.436 472.98 297.637 475.796C301.424 479.127 303.813 484.008 303.813 489.447C303.813 479.411 295.676 471.272 285.639 471.272V507.621Z" fill="#78CD6B"/>
<path d="M285.639 507.621V471.272C295.676 471.272 303.813 479.411 303.813 489.447C303.813 494.887 301.424 499.768 297.637 503.099C295.296 505.157 292.423 506.623 289.248 507.263C288.083 507.497 286.875 507.621 285.639 507.621Z" fill="#82CE49"/>
<path d="M22.3729 337.337H0V4.75107e-05H666.667H533.077L336.681 196.396H305.575V227.501L253.632 279.445C253.599 278.521 253.583 277.593 253.583 276.661H242.445C242.445 281.985 241.904 287.183 240.872 292.205L235.572 297.505V268.697H188.703V311.172H156.24V263.203H153.528L416.732 4.75107e-05H375.999C328.231 45.0627 229.372 144.836 139.105 236.797V224.692H107.081V269.46C106.274 270.284 105.486 271.088 104.682 271.909H67.3349V217.167L86.2828 198.219V198.389H100.171V194.403H90.0989L91.4547 193.047H100.171V189.059H95.4427L97.174 187.327H100.171V184.689H123.825C130.476 184.689 135.868 179.297 135.868 172.645C135.868 166.019 130.516 160.643 123.898 160.603L284.501 4.75107e-05H221.12L87.7495 133.371C79.1079 135.467 72.1625 141.885 69.2995 150.204C68.8251 150.165 68.3489 150.132 67.8645 150.132C58.3224 150.132 50.586 157.867 50.586 167.411C50.586 168.393 50.6683 169.357 50.8255 170.295L0 221.12V284.501L19.1203 265.381C21.8948 271.892 26.5473 279.533 30.2807 285.239V326.601C27.1959 329.803 24.5303 333.411 22.3729 337.337ZM176.683 4.75107e-05C119.993 56.9694 55.3959 122.739 0 179.384V194.321L194.321 4.75107e-05H176.683ZM30.2807 263.32C28.5489 261.855 27.3776 259.748 27.1333 257.368L30.2807 254.221V263.32Z" fill="#BEE8D4"/>
<path d="M-0.015625 527.841L6.56272e-08 385.46V416.732L12.1026 404.629V513.364H6.56272e-08V527.841M36.0973 496.979V477.964C39.1651 480.136 42.6625 481.735 46.4224 482.593V486.655L36.0973 496.979ZM71.3812 422.571C71.0588 419.732 70.0937 417.089 68.6355 414.789C66.8803 412.02 65.7156 408.861 65.7131 405.637C65.7125 404.949 65.7651 404.259 65.8755 403.569C65.9844 402.891 66.0407 402.196 66.0391 401.487C66.038 400.777 65.9797 400.055 65.8593 399.323C64.9303 393.663 60.2068 389.191 54.5068 388.548C53.9969 388.491 53.4917 388.463 52.9932 388.463C45.7885 388.463 39.9484 394.304 39.9484 401.509C39.9484 402.159 39.9969 402.799 40.0891 403.421C40.6817 407.407 39.5125 411.383 37.3547 414.784C36.8823 415.528 36.4615 416.309 36.0973 417.121V385.46H48.2156V370.733H141.281V385.46H147.617L131.757 401.32H111.051L71.3812 422.571ZM6.56272e-08 353.791V337.337H22.3729C19.9161 341.808 18.1183 346.693 17.1093 351.86C11.6052 353.117 5.87812 353.784 6.56272e-08 353.791ZM30.2807 326.601V285.239C33.5391 290.22 36.0973 293.727 36.0973 293.727C36.0973 293.727 55.4864 267.145 55.4864 256.437C55.4864 249.016 51.3161 242.568 45.1921 239.309L67.3349 217.167V271.909H104.682C99.3921 277.312 94.1645 282.653 89.0084 287.924C88.4677 284.245 88.188 280.487 88.188 276.661H77.0516C77.0516 287.099 74.9688 297.056 71.1948 306.144C69.5421 307.835 67.9131 309.503 66.2807 311.173C52.1443 311.255 39.3849 317.156 30.2807 326.601ZM221.904 311.172H188.703V268.697H235.572V297.505L221.904 311.172ZM156.24 311.172H105.559L153.528 263.203H156.24V311.172ZM107.081 269.46V224.692H139.105V236.797C128.274 247.832 117.562 258.759 107.081 269.46ZM36.0973 265.448C33.8803 265.448 31.8505 264.648 30.2807 263.32V254.221L37.0281 247.473C41.5677 247.939 45.1084 251.775 45.1084 256.437C45.1084 261.413 41.0745 265.448 36.0973 265.448ZM305.575 227.501V196.396H336.681L305.575 227.501Z" fill="#99DCBF"/>
<path d="M136.816 360.177H112.085V347.011C119.503 352.636 127.837 357.104 136.816 360.177ZM100.949 360.177H88.188V328.544L91.6027 325.129C92.8839 327.069 94.2402 328.957 95.6656 330.788V334.731H98.9251C99.587 335.485 100.262 336.231 100.949 336.963V360.177ZM77.0516 360.177H62.8735V353.859L65.8563 350.875H66.0864C66.1167 350.768 66.1474 350.66 66.1787 350.553L77.0516 339.68V360.177ZM165.316 353.791C145.921 353.791 128.174 346.593 114.606 334.731H121.68V321.871H102.861C101.734 320.317 100.661 318.719 99.65 317.081L105.559 311.172H156.24H188.703H221.904L211.207 321.871H204.885V328.191L180.86 352.216C175.837 353.248 170.64 353.791 165.316 353.791ZM168.479 321.871V334.731H194.493V321.871H168.479ZM132.073 321.871V334.731H158.088V321.871H132.073ZM17.1094 351.86C18.1183 346.693 19.9162 341.808 22.373 337.337C24.5303 333.411 27.1959 329.803 30.2807 326.601C39.385 317.156 52.1443 311.255 66.2807 311.173C62.035 315.52 57.8604 319.795 53.7636 323.991C42.4172 327.869 33.3688 336.752 29.2636 347.992C25.361 349.603 21.3011 350.903 17.1094 351.86Z" fill="#F5F6F5"/>
<path d="M66.0865 350.875H65.8563L66.1787 350.553C66.1474 350.66 66.1167 350.768 66.0865 350.875ZM29.2637 347.992C33.3689 336.752 42.4173 327.869 53.7637 323.991C45.9115 332.035 38.3391 339.797 31.1277 347.193C30.5115 347.467 29.8881 347.733 29.2637 347.992Z" fill="#8AD9E8"/>
<path d="M121.68 334.731H114.606C110.226 330.901 106.284 326.587 102.861 321.871H121.68V334.731ZM98.925 334.731H95.6655V330.788C96.715 332.133 97.8015 333.448 98.925 334.731Z" fill="#479AAC"/>
<path d="M132.073 334.731H158.088V321.871H132.073V334.731Z" fill="#479AAC"/>
<path d="M168.479 334.731H194.493V321.871H168.479V334.731Z" fill="#479AAC"/>
<path d="M204.885 328.191V321.871H211.207L204.885 328.191Z" fill="#479AAC"/>
<path d="M147.617 385.46H141.281V370.733H162.344L147.617 385.46Z" fill="#479AAC"/>
<path d="M19.7119 513.364H14.542L23.9097 457.777C24.9525 466.067 29.5483 473.325 36.0972 477.964V496.979L19.7119 513.364ZM26.7452 440.952L36.0972 385.46V417.121C35.0629 419.429 34.4873 421.988 34.4873 424.68V424.743C34.4999 428.496 33.2092 432.085 30.7597 434.929C29.1863 436.756 27.8343 438.777 26.7452 440.952Z" fill="#F5F6F5"/>
<path d="M14.5421 513.364H12.1025V404.629L31.2718 385.46H36.0973L26.7453 440.952C24.2817 445.875 23.1661 451.588 23.8906 457.62C23.8969 457.672 23.903 457.725 23.9098 457.777L14.5421 513.364Z" fill="#C7CBD3"/>
<path d="M48.2156 385.46H31.2719L45.9984 370.733H48.2156V385.46ZM0 385.46V370.733H8.19115C5.3776 373.623 2.64271 376.432 0 379.147V385.46Z" fill="#479AAC"/>
<path d="M162.344 370.733H45.9984L62.8735 353.859V360.177H77.0516V339.68L88.188 328.544V360.177H100.949V336.963C100.262 336.231 99.5869 335.485 98.9251 334.731C97.8016 333.448 96.7151 332.133 95.6656 330.788C94.2401 328.957 92.8839 327.069 91.6027 325.129L99.65 317.081C100.661 318.719 101.734 320.317 102.861 321.871C106.284 326.587 110.227 330.901 114.606 334.731C128.174 346.593 145.921 353.791 165.316 353.791C170.64 353.791 175.837 353.248 180.86 352.216L162.344 370.733ZM112.085 347.011V360.177H136.816C127.837 357.104 119.503 352.636 112.085 347.011ZM8.19115 370.733H0V353.791C5.87812 353.784 11.6052 353.117 17.1093 351.86C21.3011 350.903 25.3609 349.603 29.2636 347.992C29.888 347.733 30.5115 347.467 31.1276 347.193C23.0052 355.524 15.3355 363.396 8.19115 370.733ZM71.1948 306.144C74.9688 297.056 77.0516 287.099 77.0516 276.661H88.188C88.188 280.487 88.4677 284.245 89.0084 287.924C82.9688 294.099 77.0109 300.192 71.1948 306.144ZM240.872 292.205C241.904 287.183 242.445 281.985 242.445 276.661H253.583C253.583 277.593 253.599 278.521 253.632 279.445L240.872 292.205Z" fill="#D8D7D5"/>
<path d="M36.0972 293.727C36.0972 293.727 33.5389 290.22 30.2805 285.239C26.5472 279.533 21.8947 271.892 19.1201 265.381L27.1332 257.368C27.3775 259.748 28.5488 261.855 30.2805 263.32C31.8504 264.648 33.8801 265.448 36.0972 265.448C41.0744 265.448 45.1082 261.413 45.1082 256.437C45.1082 251.775 41.5676 247.939 37.028 247.473L45.192 239.309C51.316 242.568 55.4863 249.016 55.4863 256.437C55.4863 267.145 36.0972 293.727 36.0972 293.727Z" fill="#E71294"/>
<path d="M123.825 184.689H100.171V184.329L123.898 160.603C130.516 160.643 135.868 166.019 135.868 172.645C135.868 179.297 130.476 184.689 123.825 184.689ZM50.8254 170.295C50.6682 169.357 50.5859 168.393 50.5859 167.411C50.5859 157.867 58.3223 150.132 67.8645 150.132C68.3489 150.132 68.825 150.165 69.2994 150.204C72.1625 141.885 79.1078 135.467 87.7494 133.371L50.8254 170.295Z" fill="white"/>
<path d="M100.171 187.327H97.1738L100.171 184.329V187.327Z" fill="#99DCBF"/>
<path d="M100.171 193.047H91.4546L95.4426 189.059H100.171V193.047Z" fill="#99DCBF"/>
<path d="M100.171 198.389H86.2827V198.219L90.0989 194.403H100.171V198.389Z" fill="#99DCBF"/>
<path d="M82.1549 450.923C82.0128 449.567 81.7778 448.24 81.457 446.947H86.1305L82.1549 450.923Z" fill="#3B8190"/>
<path d="M86.1303 446.947H81.4568C80.6172 443.568 79.1891 440.421 77.2886 437.62H95.4574L86.1303 446.947Z" fill="#C7CBD3"/>
<path d="M124.534 408.543L111.051 401.32H131.757L124.534 408.543Z" fill="#F5F6F5"/>
<path d="M95.4575 437.62H77.2887C76.6423 436.667 75.9413 435.753 75.1903 434.885C72.7679 432.084 71.5064 428.535 71.5001 424.833C71.5001 424.804 71.5001 424.776 71.5001 424.747V424.68C71.5001 423.967 71.46 423.263 71.3813 422.571L111.051 401.32L124.534 408.543L95.4575 437.62Z" fill="#C7CBD3"/>
<path d="M46.4224 486.655V482.593C47.451 482.828 48.4994 483.007 49.564 483.128C49.6802 483.141 49.7958 483.153 49.9114 483.165L46.4224 486.655Z" fill="#967131"/>
<path d="M49.9115 483.165C49.7959 483.153 49.6803 483.141 49.5641 483.128C48.4995 483.007 47.4511 482.828 46.4225 482.593C42.6626 481.735 39.1651 480.136 36.0974 477.964C29.5485 473.325 24.9527 466.067 23.9099 457.777C23.9031 457.725 23.897 457.672 23.8907 457.62C23.1662 451.588 24.2818 445.875 26.7454 440.952C27.8345 438.777 29.1865 436.756 30.7599 434.929C33.2094 432.085 34.5001 428.496 34.4875 424.743V424.68C34.4875 421.988 35.0631 419.429 36.0974 417.121C36.4615 416.309 36.8823 415.528 37.3547 414.784C39.5126 411.383 40.6818 407.407 40.0891 403.421C39.997 402.799 39.9485 402.159 39.9485 401.509C39.9485 394.304 45.7886 388.463 52.9933 388.463C53.4918 388.463 53.997 388.491 54.5069 388.548C53.997 388.491 53.4922 388.467 52.9938 388.467V480.083L49.9115 483.165ZM71.5001 424.68C71.5001 421.041 70.449 417.649 68.6355 414.789C70.0938 417.089 71.0589 419.732 71.3813 422.571C71.4599 423.263 71.5001 423.967 71.5001 424.68Z" fill="#78CD6B"/>
<path d="M52.9937 480.083V388.467C53.4921 388.467 53.9969 388.491 54.5067 388.548C60.2067 389.191 64.9302 393.663 65.8593 399.323C65.9797 400.055 66.0379 400.777 66.039 401.487C66.0406 402.196 65.9843 402.891 65.8754 403.569C65.765 404.259 65.7125 404.949 65.713 405.637C65.7155 408.861 66.8802 412.02 68.6354 414.789C70.4488 417.649 71.4999 421.041 71.4999 424.68V424.747C71.4999 424.776 71.4999 424.804 71.4999 424.833C71.5062 428.535 72.7677 432.084 75.1901 434.885C78.9942 439.285 81.5144 444.82 82.1546 450.923L52.9937 480.083Z" fill="#82CE49"/>
<path d="M0 194.321V179.384C55.3959 122.739 119.993 56.9693 176.683 -2.09696e-05H194.321L0 194.321Z" fill="#D0EFE0"/>
<path d="M0 284.501V221.12L50.8255 170.295C52.1984 178.465 59.3047 184.689 67.8645 184.689H86.2828V187.327H97.174L95.4427 189.059H86.2828V193.047H91.4547L90.0989 194.403H86.2828V198.219L67.3349 217.167V198.389H30.2807V237.936C22.4145 240.407 16.7084 247.756 16.7084 256.437C16.7084 258.799 17.6505 261.931 19.1203 265.381L0 284.501ZM27.1333 257.368C27.1021 257.061 27.086 256.752 27.086 256.437C27.086 253.677 28.3265 251.208 30.2807 249.555V254.221L27.1333 257.368Z" fill="#D0EFE0"/>
<path d="M30.2808 254.221V249.555C31.8506 248.227 33.8804 247.425 36.0974 247.425C36.4116 247.425 36.7225 247.441 37.0282 247.473L30.2808 254.221ZM45.1922 239.309C42.4798 237.865 39.3845 237.048 36.0974 237.048C34.0709 237.048 32.1173 237.359 30.2808 237.936V198.389H67.335V217.167L45.1922 239.309Z" fill="#B0E4CE"/>
<path d="M19.1204 265.381C17.6506 261.931 16.7085 258.799 16.7085 256.437C16.7085 247.756 22.4146 240.407 30.2808 237.936C32.1173 237.359 34.0709 237.048 36.0974 237.048C39.3845 237.048 42.4798 237.865 45.1922 239.309L37.0282 247.473C36.7225 247.441 36.4116 247.425 36.0974 247.425C33.8804 247.425 31.8506 248.227 30.2808 249.555C28.3266 251.208 27.0861 253.677 27.0861 256.437C27.0861 256.752 27.1022 257.061 27.1334 257.368L19.1204 265.381Z" fill="#DC279C"/>
<path d="M119.778 161.315C119.867 160.443 119.912 159.56 119.912 158.664C119.912 144.293 108.262 132.641 93.8891 132.641C91.773 132.641 89.7178 132.893 87.7495 133.371L221.12 2.58911e-05H284.501L123.898 160.603C123.874 160.603 123.849 160.603 123.825 160.603C122.403 160.603 121.045 160.861 119.778 161.315Z" fill="#D0EFE0"/>
<path d="M86.283 184.689H67.8647C59.3049 184.689 52.1986 178.465 50.8257 170.295L87.7497 133.371C89.7179 132.893 91.7732 132.641 93.8893 132.641C108.262 132.641 119.912 144.293 119.912 158.664C119.912 159.56 119.867 160.443 119.778 161.315C121.046 160.861 122.403 160.603 123.825 160.603C123.849 160.603 123.874 160.603 123.898 160.603L100.172 184.329V174.271H106.386L93.2273 151.483L80.069 174.271H86.283V184.689Z" fill="white"/>
<path d="M97.1739 187.327H86.2827V174.271H100.171V184.329L97.1739 187.327Z" fill="#B0E4CE"/>
<path d="M91.4546 193.047H86.2827V189.059H95.4426L91.4546 193.047Z" fill="#B0E4CE"/>
<path d="M86.2827 198.219V194.403H90.0989L86.2827 198.219Z" fill="#B0E4CE"/>
<path d="M106.386 174.271H80.0688L93.2271 151.483L106.386 174.271Z" fill="#B0E4CE"/>
<path d="M107.081 271.909H104.682C105.486 271.088 106.274 270.284 107.081 269.46V271.909ZM153.528 263.203H139.105V236.797C229.372 144.836 328.231 45.0628 375.999 9.75873e-05H416.732L153.528 263.203Z" fill="#D0EFE0"/>
<path d="M0 416.732V385.46H12.1026V404.63L0 416.732ZM66.2807 311.174C67.9131 309.503 69.5421 307.835 71.1948 306.144C70.4864 307.851 69.7161 309.531 68.8912 311.172H66.5745C66.4755 311.172 66.3792 311.174 66.2807 311.174ZM105.559 311.172H96.3479C92.7396 303.99 90.2193 296.164 89.0084 287.924C94.1645 282.654 99.3921 277.312 104.682 271.91H107.081V269.46C117.562 258.759 128.274 247.832 139.105 236.798V263.203H153.528L105.559 311.172Z" fill="#B0E4CE"/>
<path d="M51.7369 360.177H28.4229C35.2333 357.847 41.6707 354.711 47.6197 350.875H51.7369V360.177ZM62.8734 353.859V350.875H65.8562L62.8734 353.859ZM66.1786 350.553C68.2884 343.293 72.7302 336.884 77.0515 331.975V339.68L66.1786 350.553ZM88.1879 328.544V319.511C89.2578 321.429 90.3969 323.303 91.6026 325.129L88.1879 328.544ZM53.7635 323.991C57.8603 319.795 62.0349 315.52 66.2806 311.173C66.3791 311.173 66.4754 311.172 66.5744 311.172H68.8911C66.9619 315.012 64.7223 318.668 62.2041 322.109C59.2843 322.431 56.4592 323.069 53.7635 323.991ZM77.0515 321.871H75.6874C76.1535 321.092 76.6087 320.305 77.0515 319.511V321.871ZM99.6499 317.081C98.4655 315.165 97.3644 313.196 96.3478 311.172H105.559L99.6499 317.081Z" fill="#F8F8F8"/>
<path d="M65.8561 350.875H62.8733V338.451C67.7692 333.463 72.0764 327.9 75.6873 321.871H77.0514V331.975C72.7301 336.884 68.2884 343.293 66.1785 350.553L65.8561 350.875ZM51.7368 350.875H47.6196C49.0196 349.972 50.3925 349.032 51.7368 348.053V350.875ZM31.1274 347.193C38.3389 339.797 45.9113 332.035 53.7634 323.991C56.4592 323.069 59.2842 322.431 62.204 322.109C54.2613 332.964 43.555 341.673 31.1274 347.193Z" fill="#A5E1ED"/>
<path d="M12.1025 404.629V385.46H31.2718L12.1025 404.629Z" fill="#D8DAE1"/>
<path d="M31.2719 385.46H0V379.147C2.64271 376.432 5.3776 373.623 8.19115 370.733H45.9984L31.2719 385.46Z" fill="#63B5BE"/>
<path d="M45.9987 370.733H8.19141C15.3357 363.396 23.0055 355.524 31.1279 347.193C43.5555 341.673 54.2617 332.964 62.2044 322.109C64.7227 318.668 66.9623 315.012 68.8915 311.172C69.7164 309.531 70.4867 307.851 71.1951 306.144C77.0112 300.192 82.9691 294.099 89.0087 287.924C90.2196 296.164 92.7399 303.989 96.3481 311.172C97.3648 313.196 98.4659 315.165 99.6503 317.081L91.6029 325.129C90.3972 323.303 89.2581 321.429 88.1883 319.511V328.544L77.0519 339.68V331.975V321.871V319.511C76.6091 320.305 76.1539 321.092 75.6877 321.871C72.0768 327.9 67.7696 333.463 62.8737 338.451V350.875V353.859L45.9987 370.733ZM47.62 350.875C41.6711 354.711 35.2336 357.847 28.4232 360.177H51.7372V350.875V348.053C50.3929 349.032 49.02 349.972 47.62 350.875Z" fill="#E3E3E2"/>
<path d="M0 578.296V533.077V542.848H146.88L142.347 547.381V542.848H0V578.296Z" fill="#D0EFE0"/>
<path d="M46.4222 513.364H36.0972V496.979L46.4222 486.655V513.364Z" fill="#B0E4CE"/>
<path d="M36.0972 513.364H19.7119L36.0972 496.979V513.364Z" fill="#F8F8F8"/>
<path d="M305.575 311.172H261.743C256.915 301.564 254.038 290.813 253.632 279.445L305.575 227.501V311.172ZM235.572 308.483V297.505L240.872 292.205C239.706 297.88 237.912 303.335 235.572 308.483ZM398.598 291.131V290.56H396.315V281.077H381.08V266.831H384.928V259.864H368.239V243.948H361.38V259.864H358.088V236.865C358.163 236.979 358.251 237.087 358.351 237.187C358.742 237.577 359.252 237.773 359.764 237.773C360.276 237.773 360.788 237.577 361.179 237.187C362.148 236.217 363.438 235.683 364.81 235.683C366.182 235.683 367.471 236.217 368.44 237.187C368.831 237.577 369.343 237.773 369.855 237.773C370.367 237.773 370.878 237.577 371.268 237.187C372.05 236.407 372.05 235.14 371.268 234.359C369.543 232.633 367.248 231.683 364.81 231.683C362.37 231.683 360.076 232.633 358.351 234.359C358.251 234.459 358.163 234.567 358.088 234.681V228.432C360.178 227.3 362.494 226.735 364.81 226.735C368.418 226.735 372.026 228.107 374.774 230.853C375.164 231.245 375.676 231.44 376.188 231.44C376.7 231.44 377.211 231.245 377.602 230.853C378.383 230.073 378.383 228.807 377.602 228.027C374.075 224.5 369.443 222.736 364.81 222.736C362.526 222.736 360.24 223.165 358.088 224.023V218.565C360.242 217.919 362.499 217.584 364.81 217.584C371.016 217.584 376.851 220 381.24 224.389C381.631 224.779 382.143 224.975 382.654 224.975C383.166 224.975 383.678 224.779 384.068 224.389C384.85 223.608 384.85 222.341 384.068 221.56C378.924 216.417 372.086 213.583 364.81 213.583C362.512 213.583 360.259 213.865 358.088 214.415V196.396H336.682L533.078 0.00013248H666.667V23.0615L398.598 291.131Z" fill="#D0EFE0"/>
<path d="M263.307 426.421L216.451 401.32H177.393V385.46H189.512V370.733H261.523V385.46H273.641V416.087L263.307 426.421ZM153.399 401.32H131.757L147.617 385.46H153.399V401.32ZM297.637 392.091V385.46H304.268L297.637 392.091ZM309.755 379.973V370.733H317.831V371.897L309.755 379.973ZM333.229 311.172H305.575V227.501L336.681 196.396H358.088V214.415C353.385 215.603 349.071 218.041 345.551 221.56C344.769 222.341 344.769 223.608 345.551 224.389C345.941 224.779 346.453 224.975 346.965 224.975C347.476 224.975 347.988 224.779 348.379 224.389C351.135 221.633 354.46 219.656 358.088 218.565V224.023C355.876 224.904 353.805 226.239 352.017 228.027C351.236 228.807 351.236 230.073 352.017 230.853C352.408 231.244 352.919 231.44 353.431 231.44C353.943 231.44 354.455 231.244 354.845 230.853C355.829 229.871 356.924 229.063 358.088 228.432V234.681C357.656 235.343 357.656 236.204 358.088 236.865V259.864H342.999V266.831H346.595V290.56H328.315V297.527H333.229V311.172ZM234.285 311.172H221.904L235.572 297.505V308.483C235.159 309.389 234.731 310.285 234.285 311.172ZM396.315 290.56H381.08V281.077H396.315V290.56Z" fill="#B0E4CE"/>
<path d="M302.211 360.177H278.189V347.549C285.425 352.927 293.517 357.203 302.211 360.177ZM267.052 360.177H254.291V334.731H264.323C265.209 335.744 266.12 336.736 267.052 337.708V360.177ZM243.153 360.177H228.976V337.705C234.539 331.909 239.327 325.367 243.153 318.229V321.871H241.292V334.731H243.153V360.177ZM217.84 360.177H193.817C202.511 357.201 210.603 352.927 217.84 347.548V360.177ZM317.831 352.715C315.868 352.383 313.935 351.979 312.024 351.501H317.831V352.715ZM180.86 352.216L204.885 328.191V334.731H216.027C206.184 343.337 194.137 349.488 180.86 352.216ZM311.151 351.277C299.461 348.211 288.841 342.46 280 334.731H303.713V321.871H277.699V332.635C271.212 326.488 265.792 319.235 261.743 311.172H305.575H333.229V321.871H314.104V334.731H333.229V344.533H311.151V351.277ZM254.956 321.871H254.291V320.741C254.509 321.12 254.731 321.496 254.956 321.871ZM227.772 321.871H211.207L221.904 311.172H234.285C232.401 314.923 230.22 318.499 227.772 321.871Z" fill="#F8F8F8"/>
<path d="M216.027 334.731H204.885V328.191L211.207 321.871H227.772C224.349 326.587 220.407 330.901 216.027 334.731Z" fill="#63B5BE"/>
<path d="M264.323 334.731H254.291V321.871H254.956C257.693 326.441 260.831 330.743 264.323 334.731ZM243.153 334.731H241.292V321.871H243.153V334.731Z" fill="#63B5BE"/>
<path d="M303.713 334.731H280C279.22 334.048 278.451 333.348 277.699 332.635V321.871H303.713V334.731Z" fill="#63B5BE"/>
<path d="M314.104 334.731H333.229V321.871H314.104V334.731Z" fill="#63B5BE"/>
<path d="M177.393 401.32H174.721L177.393 385.46V401.32Z" fill="#F8F8F8"/>
<path d="M174.721 401.32H153.398V385.46H177.393L174.721 401.32Z" fill="#D8DAE1"/>
<path d="M189.512 385.46H147.617L162.344 370.733H189.512V385.46Z" fill="#63B5BE"/>
<path d="M296.293 393.435L297.637 385.46V392.091L296.293 393.435Z" fill="#F8F8F8"/>
<path d="M273.642 416.087V385.46H297.638L296.294 393.435L273.642 416.087Z" fill="#D8DAE1"/>
<path d="M304.268 385.46H261.522V370.733H309.754V379.973L304.268 385.46Z" fill="#63B5BE"/>
<path d="M317.831 370.733H162.344L180.86 352.216C194.138 349.488 206.184 343.337 216.027 334.731C220.407 330.901 224.35 326.587 227.772 321.871C230.22 318.499 232.402 314.923 234.286 311.172C234.731 310.285 235.159 309.389 235.572 308.483C237.912 303.335 239.706 297.88 240.872 292.205L253.632 279.445C254.038 290.813 256.915 301.564 261.743 311.172C265.792 319.235 271.212 326.488 277.699 332.635C278.451 333.348 279.22 334.048 280 334.731C288.842 342.46 299.462 348.211 311.151 351.277V351.501H312.024C313.935 351.979 315.868 352.383 317.831 352.715V370.733ZM278.19 347.549V360.177H302.211C293.518 357.203 285.426 352.927 278.19 347.549ZM254.291 334.731V360.177H267.052V337.708C266.12 336.736 265.21 335.744 264.323 334.731C260.831 330.743 257.694 326.441 254.956 321.871C254.731 321.496 254.51 321.12 254.291 320.741V321.871V334.731ZM243.154 318.229C239.327 325.367 234.539 331.909 228.976 337.705V360.177H243.154V334.731V321.871V318.229ZM217.84 347.548C210.603 352.927 202.511 357.201 193.818 360.177H217.84V347.548Z" fill="#E3E3E2"/>
<path d="M361.38 259.864H368.238V243.948H361.38V259.864Z" fill="#63B5BE"/>
<path d="M381.08 290.56H356.38V286.279H372.991V271.741H356.38V266.831H381.08V281.077V290.56Z" fill="#F8F8F8"/>
<path d="M356.38 290.56H346.595V266.831H356.38V271.741H356.316V286.279H356.38V290.56Z" fill="#D8DAE1"/>
<path d="M350.6 339.128V297.527H392.201L377.616 312.112H350.6V336.891H352.837L350.6 339.128Z" fill="#EDEDED"/>
<path d="M345.193 344.533H333.229V297.527H350.6V339.128L345.193 344.533Z" fill="#D8DAE1"/>
<path d="M317.831 371.897V351.501H338.227L317.831 371.897Z" fill="#D8DAE1"/>
<path d="M352.837 336.891H350.6L368.067 321.661L352.837 336.891Z" fill="#B7E8F6"/>
<path d="M350.6 336.891V312.112H377.616L368.067 321.661L350.6 336.891Z" fill="#A5E1ED"/>
<path d="M372.991 286.279H356.316L372.991 271.741V286.279Z" fill="#B7E8F6"/>
<path d="M356.316 286.279V271.741H372.991L356.316 286.279Z" fill="#A5E1ED"/>
<path d="M338.227 351.501H311.151V344.533H345.194L338.227 351.501Z" fill="#63B5BE"/>
<path d="M392.201 297.527H328.314V290.56H398.597V291.131L392.201 297.527Z" fill="#63B5BE"/>
<path d="M384.928 266.831H342.999V259.864H384.928V266.831Z" fill="#63B5BE"/>
<path d="M382.654 224.975C382.143 224.975 381.631 224.779 381.24 224.39C376.851 220 371.016 217.584 364.81 217.584C362.499 217.584 360.242 217.919 358.088 218.566C354.46 219.656 351.135 221.634 348.379 224.39C347.988 224.779 347.476 224.975 346.966 224.975C346.454 224.975 345.942 224.779 345.551 224.39C344.77 223.608 344.77 222.342 345.551 221.56C349.071 218.042 353.386 215.603 358.088 214.415C360.259 213.866 362.512 213.583 364.81 213.583C372.086 213.583 378.924 216.418 384.068 221.56C384.85 222.342 384.85 223.608 384.068 224.39C383.678 224.779 383.166 224.975 382.654 224.975Z" fill="white"/>
<path d="M376.188 231.44C375.676 231.44 375.164 231.245 374.773 230.853C372.025 228.107 368.417 226.735 364.809 226.735C362.493 226.735 360.177 227.3 358.088 228.432C356.924 229.063 355.829 229.871 354.845 230.853C354.455 231.244 353.942 231.44 353.43 231.44C352.918 231.44 352.408 231.244 352.017 230.853C351.236 230.073 351.236 228.807 352.017 228.027C353.805 226.239 355.876 224.904 358.088 224.023C360.24 223.166 362.525 222.736 364.809 222.736C369.443 222.736 374.075 224.5 377.601 228.027C378.383 228.807 378.383 230.073 377.601 230.853C377.211 231.245 376.7 231.44 376.188 231.44Z" fill="white"/>
<path d="M369.855 237.773C369.343 237.773 368.831 237.577 368.44 237.187C367.471 236.217 366.182 235.683 364.81 235.683C363.438 235.683 362.148 236.217 361.179 237.187C360.788 237.577 360.276 237.773 359.764 237.773C359.252 237.773 358.741 237.577 358.351 237.187C358.251 237.087 358.163 236.979 358.088 236.865C357.656 236.204 357.656 235.343 358.088 234.681C358.163 234.567 358.251 234.459 358.351 234.359C360.076 232.633 362.37 231.683 364.81 231.683C367.248 231.683 369.543 232.633 371.268 234.359C372.05 235.14 372.05 236.407 371.268 237.187C370.878 237.577 370.367 237.773 369.855 237.773Z" fill="white"/>
<path d="M176.363 513.364H170.695V446.947H242.781L224.411 465.317V454.424H188.16V486.032H203.696L176.363 513.364Z" fill="#63B5BE"/>
<path d="M170.695 513.364H145.08V476.823H78.6925V513.364H59.5649V482.583C72.5963 479.6 82.3149 467.936 82.3149 454.001C82.3149 452.961 82.2608 451.933 82.1545 450.923L86.1301 446.947H170.695V513.364Z" fill="#56A0A8"/>
<path d="M242.781 446.947H86.1304L95.4574 437.62H252.108L242.781 446.947Z" fill="#D8DAE1"/>
<path d="M252.108 437.62H178.812L124.534 408.543L131.757 401.32H153.398H174.721H177.393H216.45L263.306 426.421L252.108 437.62Z" fill="#F8F8F8"/>
<path d="M178.812 437.62H95.4575L124.534 408.543L178.812 437.62Z" fill="#D8DAE1"/>
<path d="M203.696 486.032H188.16L224.411 454.424V465.317L203.696 486.032Z" fill="#B7E8F6"/>
<path d="M188.16 486.032V454.424H224.411L188.16 486.032Z" fill="#A5E1ED"/>
<path d="M78.6929 513.364H145.08V476.822H78.6929V513.364Z" fill="#438B92"/>
<path d="M59.565 513.364H46.4224V486.655L49.9114 483.165C50.9484 483.271 51.9776 483.323 52.9926 483.323C55.2521 483.323 57.4526 483.067 59.565 482.583V513.364Z" fill="#AF9350"/>
<path d="M52.9928 483.323C51.9778 483.323 50.9486 483.271 49.9116 483.165L52.9939 480.083V483.319C69.1871 483.319 82.3152 470.195 82.3152 454.001C82.3152 467.936 72.5966 479.6 59.5652 482.583C57.4528 483.067 55.2523 483.323 52.9928 483.323Z" fill="#97D889"/>
<path d="M52.9937 483.319V480.083L82.1546 450.923C82.2608 451.934 82.315 452.962 82.315 454.002C82.315 470.195 69.1869 483.319 52.9937 483.319Z" fill="#A0D965"/>
<path d="M465.455 513.364H456.54V492.861L465.527 483.873L465.455 513.364ZM441.639 513.364H436.036L441.639 507.763V513.364ZM534.249 478.533L534.271 469.975C535.864 471.265 537.576 472.412 539.388 473.395L534.249 478.533ZM573.78 401.189C573.505 400.664 573.211 400.152 572.895 399.653C570.48 395.845 569.051 391.385 569.765 386.932C570.012 385.396 570.02 383.779 569.748 382.117C569.636 381.439 569.476 380.775 569.272 380.129L573.78 375.621V401.189Z" fill="#B0E4CE"/>
<path d="M456.54 513.364H441.639V507.763L456.54 492.861V513.364Z" fill="#AF9350"/>
<path d="M584.422 428.361C583.271 426.239 581.895 424.255 580.327 422.441C577.559 419.24 576.128 415.177 576.143 410.944V410.869C576.143 407.377 575.29 404.085 573.78 401.189V375.621L592.454 356.948V385.843H573.78V390.619H592.454V420.329L584.422 428.361Z" fill="#D8DAE1"/>
<path d="M597.229 415.553V390.619H622.164L597.229 415.553ZM626.94 385.843H597.229V352.172L611.709 337.692H662.216V350.567L626.94 385.843ZM662.216 332.916H616.485L654.543 294.859H662.216V332.916Z" fill="#F5F6F5"/>
<path d="M622.164 390.619H597.23V385.843H626.94L622.164 390.619ZM592.454 390.619H573.78V385.843H592.454V390.619Z" fill="#F8F8F8"/>
<path d="M592.453 420.329V356.948L597.229 352.172V415.553L592.453 420.329ZM662.216 350.567V337.692H611.709L616.485 332.916H662.216V294.859H666.666V346.116L662.216 350.567Z" fill="#FCFCFD"/>
<path d="M666.667 294.859H654.542L666.667 282.735V294.859Z" fill="#6DC0CF"/>
<path d="M539.388 473.395C537.576 472.412 535.864 471.265 534.271 469.975L534.277 467.061L545.693 467.089L539.388 473.395ZM550.976 461.807L548.142 461.8L548.186 443.695L551.108 443.703L551.063 461.72L550.976 461.807ZM543.863 461.789L540.941 461.783L540.986 443.677L543.908 443.685L543.863 461.789ZM536.663 461.771L534.29 461.765L534.335 443.661L536.707 443.667L536.663 461.771ZM555.158 439.433L534.345 439.383L534.405 414.996L539.221 410.18L555.158 410.219V439.433ZM576.142 410.869C576.142 406.744 574.952 402.897 572.895 399.653C570.479 395.845 569.051 391.385 569.764 386.932C570.012 385.396 570.02 383.779 569.748 382.117C570.02 383.779 570.012 385.396 569.765 386.932C569.051 391.385 570.48 395.845 572.895 399.653C573.211 400.152 573.505 400.664 573.78 401.189C575.289 404.085 576.142 407.377 576.142 410.869ZM551.203 404.913L548.283 404.907L548.292 401.109L551.22 398.181L551.203 404.913Z" fill="#97D889"/>
<path d="M555.353 457.429L555.387 443.713L558.495 443.721L558.468 454.315L555.353 457.429ZM562.757 450.025L562.784 439.452L555.159 439.433V410.219L563.755 410.24L563.768 404.944L562.869 404.941L562.915 386.487L569.272 380.129C569.476 380.775 569.636 381.439 569.748 382.117C570.02 383.779 570.012 385.396 569.764 386.932C569.051 391.385 570.479 395.845 572.895 399.653C574.952 402.897 576.143 406.744 576.143 410.869V410.944C576.128 415.177 577.559 419.24 580.327 422.441C581.895 424.255 583.271 426.239 584.421 428.361L562.757 450.025ZM558.589 404.931L555.481 404.923L555.509 393.892L558.625 390.776L558.589 404.931Z" fill="#A0D965"/>
<path d="M522.827 489.955L522.831 488.645L479.312 488.538L479.359 470.043L499.941 449.46L520.44 449.511L520.491 428.909L534.405 414.996L534.345 439.383L534.335 443.661L534.291 461.765L534.277 467.061L534.271 469.975L534.249 478.533L522.827 489.955Z" fill="#F9F9F9"/>
<path d="M479.251 513.364H465.455L465.527 483.873L479.359 470.043L479.312 488.537L479.251 513.364Z" fill="#D8DAE1"/>
<path d="M563.755 410.24L555.159 410.219L539.221 410.18L548.292 401.109L548.283 404.907L551.203 404.913L551.22 398.181L555.509 393.892L555.481 404.923L558.589 404.931L558.625 390.776L562.915 386.487L562.869 404.941L563.768 404.944L563.755 410.24Z" fill="#6DC0CF"/>
<path d="M545.693 467.089L534.277 467.061L534.291 461.765L536.663 461.771L536.707 443.667L534.335 443.661L534.345 439.383L555.159 439.433L562.784 439.452L562.757 450.025L558.468 454.315L558.495 443.721L555.387 443.713L555.353 457.429L551.063 461.72L551.108 443.703L548.187 443.695L548.143 461.8L550.976 461.807L545.693 467.089ZM540.987 443.677L540.941 461.783L543.863 461.789L543.908 443.685L540.987 443.677Z" fill="#6DC0CF"/>
<path d="M520.44 449.511L499.941 449.46L520.491 428.909L520.44 449.511Z" fill="#B7E8F6"/>
<path d="M499.417 513.364H479.25L479.312 488.537L522.83 488.645L522.826 489.955L499.417 513.364Z" fill="#5DAFBD"/>
<path d="M666.667 487.616H647.004C653.475 481.039 660.04 474.368 666.667 467.637V487.616Z" fill="#6DC0CF"/>
<path d="M661.045 513.364H632.216V502.649C637.094 497.688 642.016 492.684 647.004 487.616H666.666V507.744L661.045 513.364Z" fill="#E4E8EE"/>
<path d="M632.216 513.364H621.681C625.161 509.824 628.672 506.253 632.216 502.649V513.364Z" fill="#D8DAE1"/>
<path d="M1000 58.7534H0V28.2761H1000V58.7534Z" fill="#2D677D"/>
<path d="M1000 41.1189H0V76.3882H771.672V580.141H806.935V76.3882H1000V41.1189Z" fill="#1F4256"/>
<path d="M1000 666.667H0V578.296H1000V666.667Z" fill="#1F4256"/>
<path d="M0 542.848H688.316V513.364H0V542.848Z" fill="#FAC408"/>
<path d="M213.285 666.667H646.849V542.848H213.285V666.667Z" fill="#4C5254"/>
<path d="M213.285 666.667H338.58V542.848H213.285V666.667Z" fill="#2E2D2D"/>
<path d="M338.58 558.633H646.849V542.848H338.58V558.633Z" fill="#323A3E"/>
<path d="M213.285 558.633H338.58V542.848H213.285V558.633Z" fill="#202122"/>
<path d="M0 666.667H142.347V542.848H0V666.667Z" fill="#4C5254"/>
<path d="M0 558.633H142.347V542.848H0V558.633Z" fill="#323A3E"/>
<path d="M66.2115 530.776C31.9173 530.776 4.11621 528.931 4.11621 526.656C4.11621 524.38 31.9173 522.535 66.2115 522.535C100.506 522.535 128.307 524.38 128.307 526.656C128.307 528.931 100.506 530.776 66.2115 530.776Z" fill="#AA891E"/>
<path d="M417.879 533.536C331.476 533.536 261.434 530.893 261.434 527.632C261.434 524.372 331.476 521.728 417.879 521.728C504.282 521.728 574.324 524.372 574.324 527.632C574.324 530.893 504.282 533.536 417.879 533.536Z" fill="#AA891E"/>
<path d="M313.565 339.939H516.001C527.528 339.939 536.871 349.283 536.871 360.808V503.331H292.695V360.808C292.695 349.283 302.039 339.939 313.565 339.939Z" fill="#5E6061"/>
<path d="M313.565 339.939H412.389V503.331H292.695V360.808C292.695 349.283 302.039 339.939 313.565 339.939Z" fill="#464648"/>
<path d="M307.871 503.331V360.808C307.871 356.751 311.169 353.452 315.227 353.452H517.663C521.72 353.452 525.02 356.751 525.02 360.808V503.331H307.871Z" fill="#FAFBFA"/>
<path d="M369.212 353.452H315.227C311.169 353.452 307.871 356.751 307.871 360.808V503.331H369.212V353.452Z" fill="#61C9B6"/>
<path d="M361.836 378.517H318.824V369.076H361.836V378.517Z" fill="#6BB3D6"/>
<path d="M489.976 378.517H414.784V369.076H489.976V378.517Z" fill="#6BB3D6"/>
<path d="M361.836 395.303H318.824V385.861H361.836V395.303Z" fill="#6BB3D6"/>
<path d="M436.291 395.303H414.784V385.861H436.291V395.303Z" fill="#6BB3D6"/>
<path d="M361.836 412.087H318.824V402.645H361.836V412.087Z" fill="#6BB3D6"/>
<path d="M361.836 428.873H318.824V419.431H361.836V428.873Z" fill="#6BB3D6"/>
<path d="M405.696 395.303H379.469V369.076H405.696V395.303Z" fill="#6BB3D6"/>
<path d="M559.472 503.331C559.472 522.628 543.829 527.953 524.532 527.953H305.035C285.737 527.953 270.093 522.628 270.093 503.331H559.472Z" fill="#959595"/>
<path d="M460.208 258.572C458.991 258.572 457.773 258.108 456.845 257.179C446.407 246.74 432.528 240.992 417.763 240.992C403 240.992 389.121 246.74 378.683 257.179C376.824 259.037 373.813 259.037 371.956 257.179C370.097 255.323 370.097 252.309 371.956 250.452C384.191 238.216 400.46 231.479 417.763 231.479C435.068 231.479 451.337 238.216 463.572 250.452C465.429 252.309 465.429 255.323 463.572 257.179C462.641 258.108 461.425 258.572 460.208 258.572Z" fill="#EF3359"/>
<path d="M390.699 273.952C389.481 273.952 388.264 273.488 387.336 272.559C385.476 270.701 385.476 267.689 387.336 265.832C404.112 249.055 431.413 249.052 448.192 265.831C450.049 267.687 450.049 270.699 448.192 272.557C446.336 274.416 443.323 274.416 441.465 272.557C428.392 259.489 407.129 259.491 394.063 272.559C393.133 273.488 391.916 273.952 390.699 273.952Z" fill="#EF3359"/>
<path d="M429.764 289.015C428.547 289.015 427.331 288.551 426.401 287.621C421.639 282.857 413.889 282.857 409.127 287.621C407.268 289.479 404.257 289.479 402.4 287.621C400.541 285.764 400.541 282.751 402.4 280.895C410.869 272.42 424.657 272.42 433.128 280.895C434.985 282.751 434.985 285.764 433.128 287.621C432.199 288.551 430.981 289.015 429.764 289.015Z" fill="#EF3359"/>
<path d="M180.845 530.776C158.26 530.776 139.952 528.931 139.952 526.656C139.952 524.38 158.26 522.535 180.845 522.535C203.429 522.535 221.739 524.38 221.739 526.656C221.739 528.931 203.429 530.776 180.845 530.776Z" fill="#AA891E"/>
<path d="M214.341 509.417H199.155V503.453H214.341C217.871 503.453 220.743 500.583 220.743 497.053V489.295C220.743 485.765 217.871 482.895 214.341 482.895H205.576V476.929H214.341C221.16 476.929 226.707 482.475 226.707 489.295V497.053C226.707 503.872 221.16 509.417 214.341 509.417Z" fill="#EF3359"/>
<path d="M148.013 488.805C148.013 506.736 162.549 521.272 180.48 521.272C198.411 521.272 212.947 506.736 212.947 488.805V470.461H148.013V488.805Z" fill="#DC244C"/>
<path d="M150.719 521.272C150.719 524.544 153.372 527.196 156.644 527.196H204.316C207.588 527.196 210.241 524.544 210.241 521.272H150.719Z" fill="#EF3359"/>
<path d="M180.948 521.26C198.663 521.008 212.947 506.579 212.947 488.805V470.461H180.089V521.239C180.375 521.251 180.663 521.253 180.948 521.26Z" fill="#EF3359"/>
<path d="M196.174 414.873C192.84 406.993 183.749 403.308 175.868 406.643C169.404 409.379 165.771 415.989 166.513 422.628C163.153 424.68 160.903 428.369 160.903 432.595C160.903 435.867 162.251 438.82 164.419 440.941C162.42 442.449 161.123 444.837 161.123 447.533C161.123 452.096 164.821 455.796 169.384 455.796C173.945 455.796 177.644 452.096 177.644 447.533C177.644 446.087 177.272 444.731 176.619 443.548C179.932 442.328 182.536 439.657 183.66 436.299C185.1 436.135 186.541 435.773 187.944 435.18C195.824 431.845 199.51 422.753 196.174 414.873Z" fill="white"/>
<path d="M188.173 457.683C188.173 460.64 185.775 463.039 182.817 463.039C179.86 463.039 177.461 460.64 177.461 457.683C177.461 454.725 179.86 452.327 182.817 452.327C185.775 452.327 188.173 454.725 188.173 457.683Z" fill="#B3BBCB"/>
<path d="M621.011 531.543C604.383 531.543 590.904 529.697 590.904 527.421C590.904 525.145 604.383 523.3 621.011 523.3C637.639 523.3 651.117 525.145 651.117 527.421C651.117 529.697 637.639 531.543 621.011 531.543Z" fill="#AA891E"/>
<path d="M651.435 460.195C651.435 476.941 637.862 490.516 621.115 490.516C604.368 490.516 590.795 476.941 590.795 460.195C590.795 443.451 604.368 429.875 621.115 429.875C637.862 429.875 651.435 443.451 651.435 460.195Z" fill="#6BC62F"/>
<path d="M607.542 435.751C605.874 435.751 604.251 435.921 602.655 436.18C595.455 441.724 590.795 450.405 590.795 460.195C590.795 476.941 604.368 490.516 621.115 490.516C622.782 490.516 624.407 490.347 626 490.087C633.202 484.543 637.862 475.861 637.862 466.072C637.862 449.325 624.287 435.751 607.542 435.751Z" fill="#59C142"/>
<path d="M639.075 527.196H603.155L590.795 478.695H651.435L639.075 527.196Z" fill="#61C9B6"/>
<path d="M590.795 478.695H611.534L621.014 527.196H603.155L590.795 478.695Z" fill="#3BA48A"/>
<path d="M106.693 527.196C115.32 527.196 122.314 520.203 122.314 511.576C122.314 502.949 115.32 495.956 106.693 495.956H99.8023H9.82617V500.547C15.7179 500.547 20.4933 505.323 20.4933 511.215C20.4933 517.105 15.7179 521.881 9.82617 521.881V527.196H94.3252H106.693Z" fill="#E20E62"/>
<path d="M20.4933 511.215C20.4933 517.105 15.7179 521.881 9.82617 521.881H106.186C112.078 521.881 116.854 517.105 116.854 511.215C116.854 505.323 112.078 500.547 106.186 500.547H9.82617C15.7179 500.547 20.4933 505.323 20.4933 511.215Z" fill="white"/>
<path d="M106.693 495.956C115.32 495.956 122.314 488.963 122.314 480.335C122.314 471.707 115.32 464.713 106.693 464.713H99.8023H9.82617V469.305C15.7179 469.305 20.4933 474.083 20.4933 479.973C20.4933 485.864 15.7179 490.64 9.82617 490.64V495.956H94.3252H106.693Z" fill="#4FC290"/>
<path d="M20.4933 479.973C20.4933 485.864 15.7179 490.64 9.82617 490.64H106.186C112.078 490.64 116.854 485.864 116.854 479.973C116.854 474.083 112.078 469.305 106.186 469.305H9.82617C15.7179 469.305 20.4933 474.083 20.4933 479.973Z" fill="white"/>
<path d="M92.3049 421.203H48.021C43.9606 421.203 40.6685 424.495 40.6685 428.556V519.844C40.6685 523.904 43.9606 527.196 48.021 527.196H92.3049C96.3658 527.196 99.6586 523.904 99.6586 519.844V428.556C99.6586 424.495 96.3658 421.203 92.3049 421.203Z" fill="#959595"/>
<path d="M86.9718 421.203H42.688C38.6276 421.203 35.3354 424.495 35.3354 428.556V519.844C35.3354 523.904 38.6276 527.196 42.688 527.196H86.9718C91.0333 527.196 94.325 523.904 94.325 519.844V428.556C94.325 424.495 91.0333 421.203 86.9718 421.203Z" fill="#464648"/>
<path d="M88.9923 510.419V428.556C88.9923 427.443 88.0862 426.536 86.9731 426.536H42.6893C41.5747 426.536 40.6685 427.443 40.6685 428.556V510.419H88.9923Z" fill="#61C9B6"/>
<path d="M67.8307 518.607C67.8307 515.948 65.6751 513.793 63.0162 513.793C60.3574 513.793 58.2021 515.948 58.2021 518.607C58.2021 521.265 60.3574 523.421 63.0162 523.421C65.6751 523.421 67.8307 521.265 67.8307 518.607Z" fill="#E9E8E7"/>
<path d="M84.3433 442.146H47.0522V436.336H84.3433V442.146Z" fill="#FAFBFA"/>
<path d="M84.3433 455.232H47.0522V449.422H84.3433V455.232Z" fill="#FAFBFA"/>
<path d="M84.3433 468.317H47.0522V462.508H84.3433V468.317Z" fill="#FAFBFA"/>
<path d="M63.0162 481.404H47.0522V475.593H63.0162V481.404Z" fill="#FAFBFA"/>
<path d="M98.3521 380.917C97.3483 380.917 96.3442 380.533 95.5781 379.767C86.9677 371.156 75.5182 366.416 63.3401 366.416C51.1614 366.416 39.713 371.156 31.1021 379.767C29.5693 381.301 27.0859 381.301 25.553 379.767C24.0207 378.236 24.0207 375.751 25.553 374.219C35.6458 364.125 49.0655 358.568 63.3401 358.568C77.6145 358.568 91.0343 364.125 101.127 374.219C102.659 375.751 102.659 378.236 101.127 379.767C100.36 380.533 99.3562 380.917 98.3521 380.917Z" fill="#EF3359"/>
<path d="M41.0138 393.604C40.0102 393.604 39.0066 393.22 38.2399 392.455C36.7071 390.923 36.7071 388.436 38.2399 386.905C52.0785 373.065 74.5987 373.064 88.4399 386.904C89.9727 388.435 89.9727 390.92 88.4399 392.453C86.9091 393.985 84.4238 393.985 82.891 392.453C72.1082 381.673 54.567 381.675 43.7889 392.455C43.0222 393.22 42.0181 393.604 41.0138 393.604Z" fill="#EF3359"/>
<path d="M73.2397 406.028C72.2361 406.028 71.2318 405.645 70.4657 404.879C66.5361 400.949 60.1438 400.949 56.2146 404.879C54.6823 406.412 52.199 406.412 50.6662 404.879C49.1334 403.348 49.1334 400.861 50.6662 399.329C57.6537 392.34 69.0266 392.34 76.0137 399.329C77.547 400.861 77.547 403.348 76.0137 404.879C75.2474 405.645 74.2433 406.028 73.2397 406.028Z" fill="#EF3359"/>
</g>
</svg>
