<svg width="591" height="221" viewBox="0 0 591 221" fill="none" xmlns="http://www.w3.org/2000/svg">
<path d="M120.067 6.94663C131.653 2.91996 144.107 1.47995 156.333 1.10662C166.64 0.799953 176.96 0.866626 187.28 0.946626C190.2 1.03996 193.107 1.39996 196 1.86663C200.613 2.7333 205.267 3.39999 209.947 3.89332C235.267 8.07999 259.613 17.6 281.653 30.6533C288.16 34.68 294.88 38.56 300.4 43.92C291.453 40.0666 282.453 36.2133 272.947 33.9733C237.453 25.1067 197.227 35.64 171.707 62.1466L170.813 62.0666C160.293 51.8666 148 43.08 134 38.4133C122.24 34.6266 110.16 30.8933 97.6533 31.3733C83.1333 30.7733 68.5733 33.2666 55.1733 38.9466C53.6133 38.6666 52.0533 38.3866 50.5067 38.08C55.3067 33.3066 61.56 30.44 67.32 27.04C78.44 21.2533 89.7333 15.1333 101.973 12.2133C103.347 12.2933 104.533 11.8533 105.533 10.8933C108.52 9.14666 112.027 8.46663 115.44 8.19996C117.08 8.2533 118.653 7.75996 120.067 6.94663Z" fill="#006CB5"/>
<path d="M171.707 62.1467C197.227 35.64 237.453 25.1067 272.947 33.9734C282.453 36.2134 291.453 40.0667 300.4 43.92C308.56 48.7733 315.32 55.6533 322.307 62.04C354.32 94.12 386.613 125.947 418.533 158.133C411.107 166.52 401.653 172.787 391.88 178.08C368.467 189.013 341.227 193.093 316.107 185.893C306.253 183.533 297.2 178.947 288.013 174.84C285.707 173.76 283.64 172.267 281.693 170.653C265.44 157.2 251.28 141.493 236.213 126.773C214.707 105.24 192.88 83.9867 171.707 62.1467Z" fill="#00AFF0"/>
<path d="M55.1733 38.9467C68.5733 33.2667 83.1333 30.7733 97.6533 31.3733C110.16 30.8933 122.24 34.6267 134 38.4133C148 43.08 160.293 51.8667 170.813 62.0667C155.053 77.12 140.533 93.3867 124.907 108.573C113.507 119.84 102.333 131.333 90.88 142.547C80.1067 152.987 64.8133 158.413 49.8667 157.213C25.52 155.52 3.89335 135.133 1.01335 110.867C-1.73332 94.7333 4.77331 77.9333 16.1466 66.4933C21.68 60.96 27.52 55.7333 33.52 50.72C40.48 46.3467 47.8 42.56 55.1733 38.9467Z" fill="#EA5044"/>
<path d="M49.6267 38.0133L50.5067 38.08C52.0533 38.3867 53.6133 38.6666 55.1733 38.9466C47.8 42.56 40.48 46.3467 33.52 50.72C37.92 45.44 43.9733 41.8133 49.6267 38.0133Z" fill="#858688"/>
<path d="M498.827 78.48C508.827 68.7066 522.56 63.5867 536.333 62.4667C545.013 63.48 554.04 64.6934 561.573 69.52C574.24 76.2134 584.027 88.2133 587.867 102.027C593.907 120.027 588.173 141.147 574.52 154.2C566.6 161.773 558.693 169.533 549.48 175.533C539.08 180.467 528.4 185.067 517.067 187.333C484.467 194.227 449 184.96 424.067 162.853C422.44 161.333 421.547 159.28 420.627 157.32C447 131.36 472.573 104.573 498.827 78.48Z" fill="#FFCC2A"/>
<path d="M418.533 158.133C419.053 157.933 420.107 157.533 420.627 157.32C421.547 159.28 422.44 161.333 424.067 162.853C449 184.96 484.467 194.227 517.067 187.333C528.4 185.067 539.08 180.467 549.48 175.533C545.867 179.72 540.96 182.387 536.44 185.44C511.013 202.133 481.96 213.04 451.987 218.013C441 219.08 430.08 221.12 419 220.467C408.707 221.12 398.587 219.173 388.387 218.187C362.453 214.2 337.107 205.827 314.24 192.88C304.973 187.72 295.733 182.16 288.013 174.84C297.2 178.947 306.253 183.533 316.107 185.893C341.227 193.093 368.467 189.013 391.88 178.08C401.653 172.787 411.107 166.52 418.533 158.133Z" fill="#A9CF46"/>
</svg>
